<?xml version="1.0" encoding="UTF-8"?>
<!DOCTYPE svg PUBLIC "-//W3C//DTD SVG 1.1//EN" "http://www.w3.org/Graphics/SVG/1.1/DTD/svg11.dtd">
<!-- Creator: CorelDRAW X7 -->
<svg xmlns="http://www.w3.org/2000/svg" xml:space="preserve" width="926.51mm" height="273.011mm" version="1.1" style="shape-rendering:geometricPrecision; text-rendering:geometricPrecision; image-rendering:optimizeQuality; fill-rule:evenodd; clip-rule:evenodd"
viewBox="0 0 88497 26077"
 xmlns:xlink="http://www.w3.org/1999/xlink">
 <defs>
  <style type="text/css">
   <![CDATA[
    .fil2 {fill:none}
    .fil3 {fill:#003082}
    .fil1 {fill:#1A75CE}
    .fil0 {fill:#979797}
    .fil5 {fill:#898989;fill-rule:nonzero}
    .fil7 {fill:url(#id1)}
    .fil6 {fill:url(#id2)}
    .fil4 {fill:url(#id3)}
   ]]>
  </style>
    <clipPath id="id0">
     <path d="M12388 5312c4778,-50 8652,3567 8652,7966 0,4400 -3875,7846 -8652,7967 -11298,285 -11353,-15812 0,-15933z"/>
    </clipPath>
  <linearGradient id="id1" gradientUnits="userSpaceOnUse" x1="21259.2" y1="17602.4" x2="-0.0286549" y2="17602.4">
   <stop offset="0" style="stop-opacity:1; stop-color:#007EB0"/>
   <stop offset="1" style="stop-opacity:1; stop-color:#393185"/>
  </linearGradient>
  <linearGradient id="id2" gradientUnits="userSpaceOnUse" xlink:href="#id1" x1="24781.2" y1="8622.17" x2="3791.74" y2="8622.17">
  </linearGradient>
  <radialGradient id="id3" gradientUnits="userSpaceOnUse" gradientTransform="matrix(1.56635 -0 -0 1.56635 -7061 -7521)" cx="12466.8" cy="13280.1" r="8573.04" fx="12466.8" fy="13280.1">
   <stop offset="0" style="stop-opacity:1; stop-color:#FEFEFE"/>
   <stop offset="0.6" style="stop-opacity:1; stop-color:#EBECEC"/>
   <stop offset="1" style="stop-opacity:1; stop-color:#D9DADA"/>
  </radialGradient>
 </defs>
 <g id="Layer_x0020_1">
  <metadata id="CorelCorpID_0Corel-Layer"/>
  <g id="_2200192177120">
   <path class="fil0" d="M18351 15366l69983 0 0 -367 -69675 0c-421,-1 -298,49 -308,367z"/>
   <path class="fil1" d="M46826 18335c34,153 121,205 335,221 131,1 246,3 346,5 101,-2 217,-4 349,-5 252,-19 324,-47 344,-274 -8,-285 -2405,-42 -2403,-735 25,-337 113,-576 404,-721 208,-133 520,-207 986,-207 71,0 140,0 206,1 39,-1 77,-1 115,-1 38,0 76,0 114,1 67,-1 136,-1 207,-1 466,0 778,74 986,207 264,132 363,333 397,620l-1021 0c-33,-155 -120,-209 -335,-225 -132,-1 -248,-4 -349,-5 -100,2 -215,4 -346,5 -253,19 -329,89 -349,316 -2,291 2409,0 2405,745 -24,337 -111,524 -402,669 -208,133 -520,207 -986,207 -71,0 -140,0 -207,-1 -38,1 -76,1 -114,1 -38,0 -76,0 -115,-1 -66,1 -135,1 -206,1 -466,0 -778,-74 -986,-207 -263,-131 -362,-331 -397,-616l1022 0z"/>
   <path class="fil1" d="M64549 17394l-380 0 0 -635 1393 0c150,11 373,90 380,215 -33,323 -714,355 -1393,420zm-1642 -1257l-4 3036 1266 0 0 -1144c450,-10 1335,-167 1768,-259 1920,-422 1466,-1647 -502,-1647l-2528 14z"/>
   <path class="fil1" d="M86205 18650l0 -1392c719,0 1036,-40 1174,70 96,126 63,388 63,926 0,264 -95,359 -310,389 -144,2 -271,7 -383,10 -67,-2 -318,-2 -544,-3zm291 -2015c-539,-26 -1045,-14 -1308,-14l0 2550c3572,0 3304,112 3304,-1785 0,-795 -1513,-757 -1996,-751z"/>
   <polygon class="fil1" points="33906,19173 34924,19173 34924,18279 36196,18279 36196,19173 37214,19173 37214,16619 36196,16619 36196,17641 34924,17641 34924,16619 33906,16619 "/>
   <path class="fil1" d="M44155 18228c1,-129 3,-241 4,-340 -1,-98 -3,-210 -4,-339 -18,-237 -91,-309 -349,-328 -131,-1 -246,-3 -346,-5 -102,1 -217,4 -349,5 -257,19 -331,92 -349,328 0,129 -2,241 -4,339 2,99 4,211 4,340 18,236 92,309 349,328 132,1 247,3 349,5 100,-2 215,-4 346,-5 258,-19 331,-91 349,-328zm-2416 -146c-1,-14 -1,-29 -1,-44l0 -23 0 -2 0 -2 0 -1c0,-40 0,-80 0,-122 0,-41 0,-82 0,-121l0 -1 0 -2 0 -2 0 -23c0,-15 0,-30 1,-44l0 -1 0 -1c9,-423 79,-700 413,-867 208,-133 520,-207 986,-207 71,0 140,0 206,1 38,-1 77,-1 115,-1 38,0 76,0 114,1 67,-1 136,-1 207,-1 466,0 777,74 985,207 335,167 404,444 414,867l0 1 0 1c0,14 1,29 1,44l0 23 0 2 0 2 0 1c0,39 0,80 0,121 0,42 0,82 0,122l0 1 0 2 0 2 0 23c0,15 -1,30 -1,44l0 1 0 1c-10,423 -79,700 -414,867 -208,133 -519,207 -985,207 -71,0 -140,0 -207,-1 -38,1 -76,1 -114,1 -38,0 -77,0 -115,-1 -66,1 -135,1 -206,1 -466,0 -778,-74 -986,-207 -334,-167 -404,-444 -413,-867l0 -1 0 -1z"/>
   <path class="fil1" d="M51950 18241c1,-129 3,-241 4,-340 -1,-98 -3,-210 -4,-339 -18,-237 -92,-309 -349,-328 -131,-1 -246,-3 -347,-5 -101,1 -216,4 -348,5 -257,19 -331,92 -349,328 0,129 -2,241 -4,339 2,99 4,211 4,340 18,236 92,309 349,328 132,1 247,3 348,5 101,-2 216,-4 347,-5 258,-19 331,-91 349,-328zm-2416 -146c-1,-14 -1,-29 -1,-44l0 -23 0 -2 0 -2 0 -1c0,-40 0,-80 0,-122 0,-41 0,-82 0,-121l0 -1 0 -2 0 -2 0 -23c0,-15 0,-30 1,-44l0 -1 0 -1c9,-423 78,-700 413,-867 208,-133 520,-207 985,-207 72,0 141,0 207,1 38,-1 77,-1 115,-1 38,0 76,0 114,1 67,-1 136,-1 207,-1 466,0 777,74 985,207 335,167 404,444 414,867l0 1 0 1c0,14 1,29 1,44l0 23 0 2 0 2 0 1c0,39 0,80 0,121 0,42 0,82 0,122l0 1 0 2 0 2 0 23c0,15 -1,30 -1,44l0 1 0 1c-10,423 -79,700 -414,867 -208,133 -519,207 -985,207 -71,0 -140,0 -207,-1 -38,1 -76,1 -114,1 -38,0 -77,0 -115,-1 -66,1 -135,1 -207,1 -465,0 -777,-74 -985,-207 -335,-167 -404,-444 -413,-867l0 -1 0 -1z"/>
   <path class="fil1" d="M32246 17575c-18,-233 -91,-305 -346,-324 -129,-1 -243,-3 -343,-4 -100,1 -214,3 -345,4 -254,19 -327,91 -345,325 0,127 -2,239 -4,336 2,97 4,209 4,336 18,234 91,306 345,325 131,1 245,3 345,5 100,-2 214,-4 343,-5 255,-19 328,-90 346,-324l1007 0c-23,339 -111,570 -403,715 -206,132 -514,205 -975,205 -71,0 -139,0 -205,-1 -38,1 -75,1 -113,1 -38,0 -76,0 -114,-1 -65,1 -134,1 -204,1 -461,0 -770,-73 -976,-205 -331,-165 -400,-440 -409,-858l0 -2 0 0c-1,-14 -1,-29 -1,-43l0 -24 0 -2 0 -1 0 -2c0,-39 0,-79 0,-120 0,-41 0,-81 0,-120l0 -2 0 -1 0 -2 0 -23c0,-15 0,-30 1,-44l0 0 0 -1c9,-419 78,-694 409,-859 206,-131 515,-205 976,-205 70,0 139,0 204,1 38,-1 76,-1 114,-1 38,0 75,0 113,1 66,-1 134,-1 205,-1 461,0 769,74 975,205 292,146 380,376 403,715l-1007 0z"/>
   <path class="fil1" d="M22822 16747l1204 0 0 2426 1095 0 0 -2426c550,0 867,20 1052,-6l263 0 0 -633 -2 0 -3612 0 0 633 0 6z"/>
   <polygon class="fil1" points="56631,17284 57758,17284 57758,19169 58760,19169 58760,17284 59887,17284 59887,16655 56631,16655 "/>
   <path class="fil1" d="M72331 17258l0 1915 1001 0 0 -1915 1126 0 0 -639 -3254 0 -30 0c-430,-8 -665,46 -974,482l-778 1088 -984 -1377c-38,-54 -76,-108 -114,-162 -372,0 -745,0 -1117,0l1633 2332c50,72 116,118 190,146 68,30 143,44 217,44 122,1 142,-1 175,-2 34,1 54,3 175,2 75,0 150,-14 218,-44 73,-28 140,-74 190,-146l1101 -1572c183,-250 879,-152 1225,-152z"/>
   <polygon class="fil1" points="81447,17257 82592,17257 82592,19173 83610,19173 83610,17257 84755,17257 84755,16619 81447,16619 "/>
   <path class="fil1" d="M28554 17659l-1278 0 0 -495 1946 0 0 -509 -2456 0c-277,0 -504,228 -504,506l0 3 0 495 0 509 0 494 0 0 0 3c0,279 227,506 504,506l2456 0 0 -509 -1946 0 0 -494 1278 0 0 -509z"/>
   <path class="fil1" d="M55642 17659l-1278 0 0 -375 1946 0 0 -629 -2457 0c-252,0 -468,183 -503,427l-1 1 0 78 0 3c0,668 0,1337 0,2005l460 0c15,2 30,2 44,2l502 0 0 -2 9 0 0 -1001 1278 0 0 -509z"/>
   <path class="fil1" d="M41361 16619l0 1926c3,84 3,171 -13,255 -10,37 -26,73 -47,107l0 0 -1 1c-6,11 -13,21 -20,31l-2 3 -2 2c-161,226 -476,282 -702,121l-1538 -1000 0 1068 -507 0 -507 0 0 -2086c0,-233 221,-424 494,-428l10 0 3 0 3 0 8 0 2 0c292,5 1494,884 1805,1086l0 -1086 507 0 507 0z"/>
   <polygon class="fil1" points="81369,18662 78951,18662 78951,16108 77678,16108 77681,19173 78315,19173 81369,19173 81369,19173 "/>
   <polygon class="fil2" points="45612,18211 47037,18211 47037,18410 45612,18410 "/>
   <path class="fil3" d="M63139 9688l0 -2881c1199,0 3495,-313 3495,877 0,756 -1994,1192 -2674,1450 -352,104 -703,227 -821,554zm-2496 -3633l0 8018c2931,0 2507,278 2496,-1503 -4,-668 0,-1337 0,-2005l1853 1898c1365,1347 1252,1635 2131,1619l2506 -9 -3744 -3759c563,-271 3245,-915 3245,-2756 0,-1365 -2081,-2380 -3495,-2380 -1432,0 -4992,-389 -4992,877z"/>
   <path class="fil3" d="M51026 11572c0,3302 8190,3451 8190,-127l0 -6323 -2520 0 0 6323c0,1302 -3150,1511 -3150,-38l0 -6285 -2520 0 0 6450z"/>
   <path class="fil3" d="M72931 13988l0 85c117,0 228,0 334,1 198,18 474,16 857,11 383,5 660,7 857,-11 107,-1 218,-1 335,-1l0 -85c221,-138 137,-457 127,-1172 -34,-2548 -183,-2842 513,-3715 111,-132 211,-249 277,-330 463,-535 1177,-1308 2271,-2701 359,-456 416,-397 699,-934l1 -1 0 0 0 0 -118 0 -30 0 -1237 0c-167,0 -334,-1 -501,-3 -432,-6 -667,-22 -826,3l-298 0c-269,510 -648,916 -1031,1357l-691 911c-133,139 -253,254 -348,330 -95,-76 -214,-191 -347,-330l-691 -911c-383,-441 -762,-847 -1031,-1357l-298 0c-159,-25 -395,-9 -827,-3 -160,2 -320,3 -481,3l-1404 0 0 0 0 0c283,538 340,479 699,935 1095,1393 1809,2166 2272,2701 65,81 166,199 277,331 695,872 547,1166 512,3714 -9,715 -93,1034 128,1172z"/>
   <polygon class="fil3" points="37573,5122 40085,5122 40085,14088 37573,14088 37573,10444 34432,10444 34432,14088 31919,14088 31919,5122 34432,5122 34432,8868 37573,8868 "/>
   <path class="fil3" d="M83148 7885l1207 2645 -2414 0 1207 -2645zm-5346 6203l2516 0c162,-306 291,-579 463,-924 184,-369 261,-642 418,-970l3900 0c165,708 610,1269 755,1894l2643 0 -3289 -7181c-672,-1667 -987,-1785 -2373,-1785 -1440,0 -1992,2379 -2853,4083 -232,461 -348,772 -546,1219 -427,963 -1431,2789 -1634,3664z"/>
   <path class="fil3" d="M45545 7885l1207 2645 -2414 0 1207 -2645zm-5347 6203l2517 0c162,-306 291,-579 463,-924 184,-369 261,-642 418,-970l3900 0c164,708 610,1269 755,1894l2643 0 -3290 -7181c-671,-1667 -986,-1785 -2373,-1785 -1439,0 -1991,2379 -2852,4083 -233,461 -348,772 -547,1219 -426,963 -1430,2789 -1634,3664z"/>
   <path class="fil3" d="M22302 8642c920,2269 5168,1126 5478,2612 1,19 2,39 2,59 0,1532 -3029,1539 -3147,122l-2518 0c185,4228 9837,3079 7999,-867 -774,-1908 -4000,-1438 -5130,-2102 -199,-144 -309,-323 -348,-510 -2,-19 -3,-39 -3,-59 0,-1510 3026,-1583 3147,-122l2518 0c-188,-4284 -9820,-3043 -7998,867z"/>
   <path class="fil4" d="M12388 5312c4778,-50 8652,3567 8652,7966 0,4400 -3875,7846 -8652,7967 -11298,285 -11353,-15812 0,-15933z"/>
   <g style="clip-path:url(#id0)">
    <g>
     <path id="1" class="fil5" d="M12387 -4757l98 -1 1 -1c2422,0 4617,921 6212,2403 1618,1503 2624,3587 2640,5883l0 3 0 50 1 0c0,2310 -1002,4364 -2625,5858 -1615,1487 -3852,2418 -6320,2479 -4152,106 -6841,-1956 -8053,-4659 -485,-1082 -734,-2268 -744,-3462 -10,-1192 217,-2389 682,-3494 1178,-2798 3880,-5014 8106,-5059l2 0zm99 743l-96 1c-3976,42 -6500,2084 -7585,4662 -419,996 -624,2072 -614,3141 9,1066 232,2130 669,3104 1115,2485 3622,4379 7522,4280 2343,-59 4459,-936 5981,-2337 1471,-1354 2380,-3199 2380,-5257l1 0 0 -47c-14,-2050 -928,-3924 -2400,-5292 -1497,-1389 -3565,-2253 -5858,-2253l0 -2z"/>
     <path class="fil5" d="M12387 -1180l98 -1 1 -1c2422,0 4617,921 6212,2402 1618,1504 2624,3587 2640,5883l0 3 0 51 1 0c0,2311 -1002,4366 -2624,5860 -1615,1488 -3853,2419 -6322,2480 -4151,105 -6841,-1958 -8053,-4662 -485,-1082 -733,-2269 -743,-3462 -10,-1192 217,-2389 682,-3494 1178,-2798 3880,-5014 8106,-5059l2 0zm99 743l-96 1c-3976,42 -6500,2084 -7585,4662 -419,996 -623,2072 -614,3141 9,1066 232,2130 669,3104 1114,2485 3621,4381 7522,4283 2343,-59 4460,-936 5981,-2337 1471,-1355 2380,-3201 2380,-5260l1 0 0 -48c-14,-2049 -928,-3923 -2400,-5291 -1496,-1389 -3565,-2253 -5858,-2253l0 -2z"/>
     <path class="fil5" d="M12387 2398l99 0 1 -2c2422,0 4616,922 6210,2403 1619,1504 2624,3587 2639,5884l0 1 1 51 1 1c0,2311 -1002,4365 -2624,5859 -1615,1487 -3852,2417 -6320,2480 -4152,104 -6841,-1958 -8053,-4662 -485,-1082 -734,-2268 -744,-3462 -10,-1192 217,-2388 682,-3494 1178,-2798 3880,-5014 8107,-5059l1 0zm100 744l-96 0c-3977,42 -6501,2084 -7586,4662 -419,996 -623,2072 -614,3141 9,1066 233,2130 669,3104 1114,2485 3622,4380 7522,4282 2343,-59 4459,-936 5980,-2337 1471,-1354 2380,-3199 2380,-5258l1 0 0 -47c-14,-2050 -928,-3925 -2400,-5292 -1495,-1390 -3564,-2254 -5856,-2254l0 -1z"/>
     <path class="fil5" d="M10156 2581l105 -1 1 -1c2557,0 4871,1155 6554,3015 1690,1868 2743,4449 2766,7287l0 2 0 90 1 2c0,2860 -1047,5411 -2742,7272 -1704,1872 -4068,3043 -6677,3122 -4363,131 -7192,-2427 -8474,-5790 -512,-1342 -776,-2815 -791,-4297 -15,-1479 218,-2967 701,-4342 1233,-3516 4083,-6302 8555,-6359l1 0zm106 743l-102 1c-4201,53 -6869,2644 -8015,5912 -449,1279 -666,2662 -652,4036 14,1372 259,2737 735,3985 1189,3118 3831,5490 7922,5367 2467,-74 4696,-1177 6300,-2938 1569,-1722 2537,-4077 2537,-6712l1 0 0 -88c-21,-2617 -998,-5003 -2566,-6736 -1576,-1743 -3752,-2826 -6160,-2826l0 -1z"/>
     <path class="fil5" d="M7459 2581l105 -1 1 -1c2557,0 4871,1155 6554,3015 1690,1868 2743,4449 2766,7287l0 2 0 90 1 2c0,2860 -1047,5411 -2742,7272 -1704,1872 -4068,3043 -6677,3122 -4363,131 -7192,-2427 -8474,-5790 -512,-1342 -776,-2815 -791,-4297 -15,-1479 218,-2967 701,-4342 1233,-3516 4083,-6302 8555,-6359l1 0zm106 743l-102 1c-4201,53 -6869,2644 -8015,5912 -449,1279 -666,2662 -652,4036 14,1372 259,2737 735,3985 1189,3118 3831,5490 7922,5367 2466,-74 4696,-1177 6300,-2938 1569,-1722 2537,-4077 2537,-6712l1 0 0 -88c-21,-2617 -998,-5003 -2566,-6736 -1576,-1743 -3752,-2826 -6160,-2826l0 -1z"/>
     <path class="fil5" d="M17395 2581l105 -1 1 -1c2557,0 4871,1155 6553,3015 1691,1868 2744,4449 2767,7287l0 2 0 90 1 2c0,2860 -1047,5411 -2742,7272 -1705,1872 -4068,3043 -6677,3122 -4363,131 -7192,-2427 -8474,-5790 -512,-1342 -776,-2815 -791,-4297 -15,-1479 218,-2967 701,-4342 1233,-3516 4083,-6302 8555,-6359l1 0zm106 743l-103 1c-4200,53 -6868,2644 -8015,5912 -448,1279 -665,2662 -651,4036 14,1372 259,2737 734,3985 1190,3118 3832,5490 7923,5367 2466,-74 4696,-1177 6300,-2938 1568,-1722 2537,-4077 2537,-6712l1 0 0 -88c-21,-2617 -998,-5003 -2566,-6736 -1577,-1743 -3752,-2826 -6160,-2826l0 -1z"/>
     <path class="fil5" d="M14698 2581l104 -1 2 -1c2556,0 4871,1155 6553,3015 1691,1868 2744,4449 2766,7287l0 2 1 90 1 2c0,2860 -1047,5411 -2742,7272 -1705,1872 -4068,3043 -6677,3122 -4363,131 -7192,-2427 -8475,-5790 -511,-1342 -775,-2815 -790,-4297 -15,-1479 218,-2967 700,-4342 1233,-3516 4084,-6302 8556,-6359l1 0zm106 743l-103 1c-4200,53 -6868,2644 -8015,5912 -448,1279 -666,2662 -652,4036 14,1372 260,2737 735,3985 1190,3118 3832,5490 7923,5367 2466,-74 4696,-1177 6300,-2938 1568,-1722 2537,-4077 2537,-6712l1 0 0 -88c-22,-2617 -998,-5003 -2566,-6736 -1577,-1743 -3752,-2826 -6160,-2826l0 -1z"/>
     <path class="fil5" d="M13115 5283c2,31 816,10541 -441,16063l-573 -204c1228,-5392 425,-15762 423,-15792l591 -67z"/>
    </g>
   </g>
   <path class="fil2" d="M12388 5312c4778,-50 8652,3567 8652,7966 0,4400 -3875,7846 -8652,7967 -11298,285 -11353,-15812 0,-15933z"/>
   <path class="fil5" d="M12387 5064l100 0 0 -1c2400,0 4573,911 6151,2377 1594,1482 2584,3531 2599,5786l0 1 1 50 0 1c0,2269 -986,4288 -2583,5758 -1599,1473 -3816,2395 -6263,2457 -4110,103 -6769,-1931 -7965,-4599 -477,-1064 -721,-2230 -731,-3402 -10,-1171 213,-2348 671,-3435 1162,-2761 3834,-4948 8020,-4993l0 0zm100 496l-97 0c-4018,43 -6572,2114 -7672,4729 -427,1014 -635,2110 -626,3199 9,1088 237,2172 681,3163 1131,2522 3669,4445 7611,4346 2364,-60 4500,-946 6037,-2361 1496,-1377 2420,-3257 2420,-5358l1 0 0 -48c-14,-2091 -944,-4001 -2440,-5391 -1512,-1405 -3601,-2278 -5915,-2278l0 -1z"/>
   <path class="fil6" d="M4593 17244c2940,-12692 20504,-7345 20402,-17244 -5992,-30 -16601,2277 -19917,8261 -1765,3185 -2032,6209 -485,8983z"/>
   <path class="fil7" d="M20036 9128c-2940,12692 -20137,7050 -20036,16949 5992,30 16242,-2616 19917,-8261 1765,-2711 1773,-5960 119,-8688z"/>
  </g>
 </g>
</svg>
