<?xml version="1.0" encoding="utf-8"?>
<!-- Generator: Adobe Illustrator 24.2.1, SVG Export Plug-In . SVG Version: 6.00 Build 0)  -->
<svg version="1.1" xmlns="http://www.w3.org/2000/svg" xmlns:xlink="http://www.w3.org/1999/xlink" x="0px" y="0px"
	 viewBox="0 0 500 500" style="enable-background:new 0 0 500 500;" xml:space="preserve">
<style type="text/css">
	.st0{display:none;}
	.st1{display:inline;fill:#FFFFFF;}
	.st2{fill:#BBE2F2;}
	.st3{fill:#1C31B5;}
	.st4{fill:#009CF8;}
	.st5{fill:#006BDE;}
	.st6{fill:#18315B;}
	.st7{fill:#000B29;}
	.st8{fill:#F97853;}
	.st9{fill:#EA5143;}
	.st10{fill:#FFA681;}
	.st11{fill:#FFFFFF;}
	.st12{fill:#264CBE;}
	.st13{fill:#E3E3E3;}
	.st14{fill:#1D567E;}
	.st15{display:inline;}
	.st16{fill:#112129;}
</style>
<g id="BACKGROUND" class="st0">
	<rect class="st1" width="500" height="500"/>
</g>
<g id="OBJECTS">
	<g>
		<path class="st2" d="M216.79,158.1c-15.63-56.69-86.05-74.95-126.41-32.58c-0.58,0.61-1.16,1.23-1.74,1.86
			c-57.86,62.9-30.53,217.89,90.22,257.17c120.75,39.28,246.35-32.45,253.4-96.58c7.06-64.13-48.65-84.28-135.11-66.35
			C248.32,231.75,226.52,193.4,216.79,158.1z"/>
		<path class="st2" d="M317.23,167.8c-16.16,2.63-20.63,16.94-8.16,27.1c4.12,3.36,10.01,6.14,18.4,7.54
			c31.95,5.3,48.91-8.84,36.1-27.17C355.67,163.95,333.25,165.19,317.23,167.8z"/>
		<path class="st2" d="M59.64,282.34c-10.04-12.92-24.75-10-27.7,5.81c-0.97,5.23-0.6,11.73,2.19,19.76
			c10.64,30.59,31.17,38.71,41.14,18.69C81.41,314.25,69.59,295.15,59.64,282.34z"/>
		<path class="st2" d="M443.66,295.42c-1.49,7.79,4.95,13.31,12.23,10.31c2.41-0.99,4.84-2.91,7-6.27
			c8.24-12.81,4.06-23.8-7.4-22.68C448.41,277.48,445.13,287.7,443.66,295.42z"/>
		<path class="st2" d="M402.82,213.2c7.76,1.62,13.39-4.72,10.51-12.06c-0.95-2.43-2.82-4.89-6.15-7.11
			c-12.67-8.45-23.73-4.47-22.8,7.02C384.96,208.14,395.12,211.6,402.82,213.2z"/>
		<path class="st2" d="M214.09,129.83c6.15,5.01,14.06,1.97,14.88-5.87c0.27-2.59-0.26-5.64-2.19-9.14
			c-7.36-13.34-19.01-14.89-23.47-4.26C200.57,117.12,208,124.86,214.09,129.83z"/>
	</g>
	<g>
		<path class="st3" d="M462.91,334.4c12.33-12.39,21.72-26.4,12.38-28.58c-9.35-2.19-25.05,22.22-27.79,44.44l-2.74,7.33
			c2.28-16.16-3.26-35.84-11.36-36.65c-8.05-0.81-3.18,11.96,3.22,22.88c4.87,8.31,6.15,14.87,6.47,18.25l-12.93,34.64
			c3.53-25.59-5.24-56.65-18.06-57.93c-12.78-1.28-5.04,18.98,5.11,36.3c7.67,13.09,9.73,23.44,10.26,28.85l-2.58,6.91
			c1.13,0.63,2.26,1.26,3.39,1.88l15.39-41.22c2.97-2.22,7.48-4.89,13.89-7.06c11.99-4.05,24.03-10.5,17.42-15.17
			c-5.74-4.05-19.23,3.75-28.52,14.75l5.32-14.25C454.18,345.65,457.59,339.75,462.91,334.4z"/>
		<path class="st3" d="M74.27,172.7c1.6-14.97,0.35-29.44-7.1-25.87c-7.46,3.57-4.84,28.43,5.3,44.82l2.12,6.4
			c-7.18-12.08-21.51-22.31-27.39-18.48c-5.84,3.8,4.31,9.75,14.49,13.63c7.75,2.96,12.15,6.67,14.19,8.77l9.99,30.24
			c-11.42-19.09-34.05-35.22-43.36-29.17c-9.27,6.03,6.84,15.46,23,21.62c12.21,4.66,19.17,10.5,22.44,13.84l1.99,6.03
			c1.1-0.18,2.2-0.37,3.29-0.56L81.35,208c0.8-3.09,2.38-7.32,5.52-12.23c5.86-9.18,10.48-20.01,3.52-19.58
			c-6.04,0.37-10.89,12.88-11.2,25.28l-4.11-12.44C74.47,184.96,73.58,179.16,74.27,172.7z"/>
		<g>
			<g>
				<path class="st4" d="M379.68,375.57c0.16,0.85,0.34,1.77,0.55,2.76l0,0c2.22,10.32,7.67,27.22,19.93,30.54
					c0,0-6.67-34.8,17.12-43.87c23.79-9.06,21.16-17.7,19.8-33.06s-6.62-18.29,9.89-32.68c16.51-14.39,13.35-35.83,13.35-35.83
					s-15.62,24.47-32.31,25.04c-16.69,0.57-19.61,14.81-18.9,25.4c0.71,10.59-13.46,11.79-21.13,17.93
					c-7.67,6.14-9.11,38.41-9.11,38.41S379.09,372.33,379.68,375.57z"/>
			</g>
			<g>
				<path class="st5" d="M379.68,375.57c0.16,0.85,0.34,1.77,0.55,2.76c1.71-5.18,4.12-9.53,6.37-12.87
					c5.34-7.91,12.85-14.4,19.61-16.95c10.76-4.06,16.02-14.61,17.04-34.23c0.59-11.39,12.5-18.11,12.62-18.18
					c0.35-0.19,0.48-0.63,0.28-0.98c-0.19-0.35-0.63-0.48-0.98-0.28c-0.52,0.29-12.74,7.17-13.37,19.37
					c-0.98,18.96-5.95,29.13-16.1,32.95c-7.13,2.69-14.72,9.23-20.3,17.49C383.43,367.57,381.35,371.25,379.68,375.57z"/>
			</g>
		</g>
		<g>
			<g>
				<path class="st5" d="M116.36,408.68h16.72c-9.03-1.49-31.43-11.11-33.42-30.39c-2.53-24.42-11.22-24.11-25.88-26.67
					c-14.65-2.55-18.69,1.62-27.99-17.34c-9.3-18.96-30.06-21.35-30.06-21.35s18.92,20.64,15.3,36.33
					c-3.62,15.69,8.92,21.95,18.97,23.92c10.05,1.97,7.64,15.47,11.46,24.14c1.74,3.96,8.87,8.06,16.11,11.35H116.36z"/>
			</g>
			<g>
				<path class="st3" d="M80.15,384.64c0.73,7.31,4.94,16.01,11.25,23.26c0.22,0.26,0.45,0.51,0.69,0.77h1.9
					c-0.54-0.57-1.06-1.14-1.54-1.69c-6.04-6.94-10.22-15.55-10.92-22.49c-1.1-11.04-9.63-18.56-27.65-24.38
					c-10.46-3.38-13.77-16.15-13.8-16.28c-0.09-0.37-0.47-0.6-0.84-0.51c-0.37,0.09-0.6,0.47-0.51,0.84
					c0.14,0.56,3.51,13.65,14.72,17.27C70.87,367.08,79.11,374.23,80.15,384.64z"/>
			</g>
		</g>
		<g>
			<g>
				<path class="st4" d="M125.37,363.36c-0.35,1.19-0.76,2.48-1.21,3.85l0,0c-4.75,14.38-14.5,38.61-32.51,41.47
					c0,0,14.25-49.59-18.29-66.17s-27.46-28.5-23.16-50.2c4.3-21.71,12.25-25.08-9.08-48.15C19.78,221.09,27.58,191,27.58,191
					s18.52,37.32,42.24,40.69c23.72,3.37,25.69,24.15,23.05,39.15c-2.64,15,17.39,18.89,27.38,28.83
					c9.99,9.94,7.09,56.19,7.09,56.19S126.72,358.83,125.37,363.36z"/>
			</g>
			<g>
				<path class="st5" d="M125.37,363.36c-0.35,1.19-0.76,2.48-1.21,3.85c-1.64-7.65-4.41-14.23-7.11-19.33
					c-6.4-12.1-16.12-22.52-25.37-27.2c-14.73-7.44-20.6-23.31-19.04-51.45c0.91-16.33-15.05-27.76-15.22-27.87
					c-0.47-0.33-0.58-0.98-0.25-1.44c0.33-0.47,0.98-0.58,1.44-0.25c0.7,0.49,17.07,12.19,16.09,29.68
					c-1.51,27.2,4.01,42.47,17.9,49.49c9.76,4.93,19.58,15.42,26.27,28.07C121.25,351.38,123.67,356.94,125.37,363.36z"/>
			</g>
		</g>
	</g>
	<g>
		<g>
			<path class="st6" d="M138.28,397.02c0.06,3.77,0.12,7.69,0.21,11.66h36.36c0.07-4.34,0.12-8.51,0.16-12.41
				c0.11-10.58,0.12-19.29,0.11-24.71c0-3.84-0.02-6.02-0.02-6.02l-37.08-0.39c0,0,0,3.2,0.03,8.44
				C138.08,379.42,138.14,387.76,138.28,397.02z"/>
			<path class="st7" d="M138.06,373.6c0.02,5.82,0.09,14.16,0.23,23.42c11.42,0.87,23.94,0.88,36.73-0.75
				c0.11-10.58,0.12-19.29,0.11-24.71L138.06,373.6z"/>
		</g>
		<g>
			<path class="st6" d="M92.46,388.66c0.04,5.93,0.11,12.72,0.23,20.02h36.36c0.09-4.28,0.16-8.5,0.22-12.54
				c0.13-8.66,0.19-16.47,0.22-22.07c0.03-5.52,0.03-8.91,0.03-8.91l-37.09,0.39c0,0-0.03,3.93-0.02,10.55
				C92.41,379.6,92.43,383.84,92.46,388.66z"/>
			<path class="st7" d="M92.41,376.1c0,3.5,0.02,7.74,0.05,12.56c7.38,2.18,20.6,5.56,36.81,7.48c0.13-8.66,0.19-16.47,0.22-22.07
				L92.41,376.1z"/>
		</g>
		<g>
			<path class="st6" d="M153.37,170.08c0,0,5.84-5.63,5.82-11.18c-0.02-5.56-3.8-3.92-5.82-9.09c-2.03-5.18-8.05-8.34-11.35-7.7
				c-3.3,0.63-10.28-12.25-19.74-9.98c-9.46,2.27-8.64,14.4-12.71,16.17c-4.07,1.77-2.94,8.97-0.79,10.61
				c2.15,1.64,3.06,8.24,4.26,8.09C114.25,166.84,153.37,170.08,153.37,170.08z"/>
			<g>
				<path class="st8" d="M114.04,169.95c0,0-3.67-4.9-6.4-0.85c-2.73,4.05,1.13,16.01,7.82,13.09L114.04,169.95z"/>
				<g>
					<path class="st9" d="M113.99,178.5c-0.25,0-0.47-0.16-0.54-0.41c-1.04-3.69-4.86-5.19-4.9-5.21c-0.29-0.11-0.44-0.44-0.33-0.73
						c0.11-0.29,0.44-0.44,0.73-0.33c0.18,0.07,4.4,1.7,5.59,5.96c0.08,0.3-0.09,0.61-0.39,0.7
						C114.1,178.49,114.04,178.5,113.99,178.5z"/>
				</g>
				<g>
					<path class="st9" d="M110.13,176.64c-0.1,0-0.21-0.03-0.31-0.09c-0.26-0.17-0.34-0.52-0.17-0.78c0.03-0.04,0.71-1.08,2.12-1.71
						c0.28-0.13,0.62,0,0.75,0.29c0.13,0.28,0,0.62-0.29,0.75c-1.1,0.49-1.63,1.28-1.63,1.29
						C110.5,176.54,110.32,176.64,110.13,176.64z"/>
				</g>
			</g>
			<g>
				<path class="st8" d="M151.9,169.95c0,0,3.67-4.9,6.4-0.85c2.73,4.05-1.13,16.01-7.82,13.09L151.9,169.95z"/>
				<g>
					<path class="st9" d="M151.95,178.5c0.25,0,0.47-0.16,0.54-0.41c1.04-3.69,4.86-5.19,4.9-5.21c0.29-0.11,0.44-0.44,0.33-0.73
						c-0.11-0.29-0.44-0.44-0.73-0.33c-0.18,0.07-4.4,1.7-5.59,5.96c-0.08,0.3,0.09,0.61,0.39,0.7
						C151.84,178.49,151.9,178.5,151.95,178.5z"/>
				</g>
				<g>
					<g>
						<path class="st9" d="M155.81,176.64c0.1,0,0.21-0.03,0.31-0.09c0.26-0.17,0.34-0.52,0.17-0.78c-0.03-0.04-0.71-1.08-2.12-1.71
							c-0.28-0.13-0.62,0-0.75,0.29c-0.13,0.28,0,0.62,0.29,0.75c1.09,0.49,1.63,1.28,1.63,1.29
							C155.44,176.54,155.62,176.64,155.81,176.64z"/>
					</g>
				</g>
			</g>
			<path class="st10" d="M142.01,192.34v11.9c0,0-3.55,6.06-8.35,6.47c-4.79,0.42-9.05-5.22-9.05-5.22v-12.31L142.01,192.34z"/>
			<path class="st8" d="M142.01,192.34v5.28c-3.22,3.57-8.94,4.46-17.4,3.22v-7.66L142.01,192.34z"/>
			<path class="st10" d="M154.55,161.79c-0.22,4.62-0.66,10.4-1.54,15.03c-0.22,1.15-0.47,2.24-0.75,3.21
				c-2.5,8.77-8.77,23.8-26.3,17.54c-7.74-2.76-11.33-11.39-12.93-20.16c-1.09-5.96-1.25-11.98-1.17-16.28
				c0.08-4.39,2.48-8.4,6.3-10.57c10.35-5.87,21.27-3.68,28.46-0.92C151.62,151.56,154.81,156.46,154.55,161.79z"/>
			<path class="st6" d="M113.04,177.4c0,0,1.7,10.14,3.31,13.83c1.61,3.69,6,4.39,7.65,7.51c2.35,4.45,5.93,7.98,11.83,5.83
				c4.9-1.79,4.68-4.3,7.43-6.24c4.71-3.32,7.04-6.98,7.23-10.01c0.19-3.03,2.53-11.51,2.53-11.51l-2.53-0.18
				c0,0-1.44,2.98-3.56,6.27c-2.13-4.67-12.37-1.27-12.37-1.27l-1.96,0.63l-2.01-0.63c0,0-10.36-3.25-12.41,1.64
				c-1.25-1.92-2.27-4.07-2.74-6.36L113.04,177.4z M132.61,183.84c11.75-2.02,9.65,4.86,9.57,5.11v0c0,0,0,0,0,0
				c-0.8,0.76-1.61,1.39-2.41,1.83c-4.55,2.46-5.04,2.09-6.84,2.17c-1.83,0.09-4.35-0.45-6.9-1.88c-0.8-0.45-1.99-1.31-3.29-2.5
				C122.73,188.57,120.88,182.26,132.61,183.84z"/>
			<path class="st6" d="M125.55,171.5c0,1.27-0.65,2.3-1.46,2.3c-0.81,0-1.46-1.03-1.46-2.3c0-1.27,0.65-2.3,1.46-2.3
				C124.89,169.2,125.55,170.23,125.55,171.5z"/>
			<path class="st6" d="M142.92,171.5c0,1.27-0.65,2.3-1.46,2.3c-0.81,0-1.46-1.03-1.46-2.3c0-1.27,0.65-2.3,1.46-2.3
				C142.27,169.2,142.92,170.23,142.92,171.5z"/>
			<path class="st6" d="M147.22,163.93c0,0-6.04-2.39-10.69-0.38l0.47,2.59c0,0,6.83-0.58,10.27,0.82
				C147.56,165.96,147.61,164.95,147.22,163.93z"/>
			<path class="st6" d="M118.5,163.94c0,0,6.08-2.4,10.77-0.38l-0.47,2.61c0,0-6.88-0.58-10.34,0.82
				C118.15,165.98,118.1,164.97,118.5,163.94z"/>
			<g>
				<path class="st8" d="M133.17,181.14c0.95,0,1.9-0.37,2.05-0.43c0.29-0.12,0.43-0.45,0.31-0.74c-0.12-0.29-0.45-0.43-0.74-0.31
					c-0.51,0.21-1.74,0.53-2.27,0.21c-0.1-0.06-0.24-0.18-0.28-0.53c-0.2-1.97,0.34-8.59,0.34-8.66c0.03-0.31-0.21-0.58-0.52-0.61
					c-0.31-0.03-0.58,0.21-0.61,0.52c-0.02,0.28-0.55,6.79-0.34,8.86c0.08,0.78,0.49,1.18,0.82,1.38
					C132.3,181.06,132.73,181.14,133.17,181.14z"/>
			</g>
			<path class="st11" d="M125.96,184.97c0.43,2.16,1.85,6.13,6.66,6.13c4.82,0,6.17-3.63,6.63-6.13H125.96z"/>
			<path class="st6" d="M154.55,161.79c-0.22,4.62-0.66,10.4-1.54,15.03l-2.53-0.18c0,0,0.61-3.9,0.89-6.45
				c0.28-2.54,0.76-7.3-1.41-7.89c-2.16-0.59-0.89-6.01-3.91-8.36c-3.01-2.36-9.7-4.43-14.15-1.7c-4.44,2.73-9.49,1.22-11.54,1.7
				c-2.05,0.47-4.83,3.29-4.08,5.93c0.76,2.63-1.5,4.24-2.05,6.97c-0.55,2.73,1.2,10.08,1.2,10.08l-2.41,0.49
				c-1.09-5.96-1.25-11.98-1.17-16.28c0.08-4.39,2.48-8.4,6.3-10.57c10.35-5.87,21.27-3.68,28.46-0.92
				C151.62,151.56,154.81,156.46,154.55,161.79z"/>
		</g>
		<g>
			<g>
				<path class="st5" d="M182.79,383.42c-11.43,2.9-22.87,4.77-34.31,5.63c-0.52,0.04-1.03,0.08-1.55,0.11
					c-1.57,0.11-3.15,0.19-4.72,0.26c-7.78,0.34-15.57,0.2-23.35-0.4c-1.57-0.12-3.14-0.26-4.71-0.42c-0.5-0.05-1-0.1-1.51-0.16
					c-9.3-1.01-18.59-2.69-27.89-5.03c-0.09-8.57,0.01-35.66,0.54-65.04c0.06-3.53,0.13-7.09,0.21-10.66
					c0.82-38.72,2.41-78.03,5.28-81.96c2.74-3.77,11.01-8.56,18.91-12.88c0.47-0.26,0.94-0.51,1.41-0.77
					c1.78-0.97,3.51-1.9,5.15-2.79c3.5-1.91,6.52-3.6,8.39-4.91v1.08c0,0,4.25,5.63,9.05,5.21c4.37-0.38,7.7-5.42,8.26-6.33
					c2.06,1.45,5.76,3.45,10.06,5.72c1.19,0.63,2.43,1.28,3.69,1.95c0.46,0.24,0.93,0.49,1.4,0.74c8.74,4.63,18.16,9.86,20.99,13.74
					c0.21,0.29,0.41,0.77,0.6,1.43c1.67,5.67,2.71,24.47,3.34,47.24c0,0.08,0.01,0.16,0.01,0.25c0.03,0.92,0.05,1.85,0.07,2.78
					c0,0.12,0.01,0.24,0.01,0.37c0.21,7.99,0.36,16.4,0.48,24.84c0.01,0.67,0.02,1.34,0.03,2.01c0,0.34,0.01,0.67,0.01,1.01
					c0.03,1.66,0.05,3.33,0.06,4.98c0.02,1.22,0.03,2.44,0.04,3.66C183.04,345.64,182.91,374.45,182.79,383.42z"/>
			</g>
			<g>
				<path class="st12" d="M182.09,278.23c-2.75-4.49-5.71-9.08-8.49-13.14c-0.01-0.01-0.02-0.02-0.02-0.03
					c-1.17-1.7-2.31-3.31-3.39-4.78c-0.02-0.03-0.04-0.05-0.06-0.08c-0.34-0.46-0.67-0.91-1-1.35c-0.05-0.08-0.09-0.15-0.12-0.24
					l0,0c-0.09-0.29,0.01-0.62,0.27-0.82c0.34-0.25,0.81-0.19,1.06,0.15c3.34,4.43,7.62,10.79,11.66,17.26
					c0,0.08,0.01,0.16,0.01,0.25C182.04,276.37,182.07,277.29,182.09,278.23z"/>
			</g>
			<path class="st5" d="M178.18,225.91c0,0,17.24,31.59,27.76,47.61c0,0,5.98-5.49,13.75-12.84c8.43-7.97,19.96-21.28,19.96-21.28
				l6.38,7.57c0,0-25.9,46.62-37.52,52.47c-11.62,5.86-33.03-35.61-33.03-35.61L178.18,225.91z"/>
			<g>
				<path class="st12" d="M105.16,350.43c-0.01,0-0.02,0-0.03,0c-0.43-0.02-0.77-0.38-0.75-0.81c0.9-25.51-12.33-33.78-12.46-33.86
					c-0.37-0.22-0.49-0.7-0.27-1.07c0.22-0.37,0.7-0.49,1.07-0.27c0.15,0.09,3.64,2.21,7.03,7.66c3.09,4.97,6.68,13.79,6.19,27.6
					C105.92,350.1,105.58,350.43,105.16,350.43z"/>
			</g>
			<g>
				<path class="st12" d="M161.6,326.39c-0.4,0-0.74-0.31-0.78-0.72c-0.42-5.37,1.35-9.29,3.59-14.25c0.66-1.45,1.33-2.95,2.03-4.64
					c4.35-10.55,2.16-22.61,2.14-22.73c-0.08-0.42,0.2-0.83,0.62-0.91c0.42-0.08,0.83,0.2,0.91,0.62c0.1,0.51,2.29,12.64-2.23,23.61
					c-0.7,1.71-1.39,3.22-2.05,4.68c-2.23,4.94-3.85,8.52-3.46,13.49c0.03,0.43-0.29,0.8-0.72,0.84
					C161.64,326.39,161.62,326.39,161.6,326.39z"/>
			</g>
			<g>
				<path class="st11" d="M116.23,209.32c0.33,2.51,0.82,5.77,1.36,9.47c0.16,1.1,0.33,2.24,0.49,3.41
					c0.54,3.82,1.1,7.98,1.58,12.19c0.13,1.13,0.25,2.26,0.36,3.39c0.42,4.16,0.74,8.3,0.85,12.15c0.04,1.16,0.05,2.3,0.05,3.4
					c-0.01,2.94-0.17,5.63-0.53,7.94c-0.23,1.46-0.43,2.88-0.61,4.28c-0.15,1.16-0.28,2.29-0.4,3.41
					c-0.45,4.34-0.68,8.38-0.75,12.19c-0.02,1.16-0.02,2.29-0.01,3.4c0.03,4.32,0.28,8.35,0.64,12.19c0.11,1.15,0.22,2.28,0.34,3.39
					c0.47,4.19,1.03,8.18,1.57,12.12c0.16,1.13,0.31,2.25,0.45,3.38c0.23,1.8,0.45,3.61,0.64,5.42c0.2,1.92,0.33,4.18,0.39,6.67
					c0.03,1.09,0.05,2.23,0.05,3.41c0.02,3.73-0.08,7.87-0.25,12.19c-0.05,1.13-0.09,2.27-0.15,3.43
					c-0.19,4.02-0.45,8.15-0.73,12.22c-0.08,1.15-0.17,2.29-0.25,3.43c-0.31,4.24-0.66,8.38-1.02,12.22
					c-0.11,1.17-0.21,2.31-0.32,3.41c-0.41,4.23-0.8,7.99-1.14,11c7.79,0.6,15.57,0.73,23.36,0.39c0.18-3.19,0.68-8.35,1.17-14.41
					c0.09-1.11,0.18-2.25,0.27-3.42c0.29-3.86,0.56-7.98,0.73-12.14c0.05-1.14,0.09-2.28,0.12-3.43c0.12-4.15,0.12-8.28-0.06-12.15
					c-0.05-1.17-0.12-2.32-0.21-3.44c-0.09-1.14-0.2-2.26-0.33-3.33c-0.38-3.04-0.52-5.96-0.5-8.84c0-1.14,0.03-2.28,0.09-3.42
					c0.18-3.96,0.61-7.92,1.11-12.13c0.13-1.12,0.27-2.25,0.41-3.41c0.45-3.74,0.92-7.71,1.29-12.06c0.1-1.11,0.19-2.25,0.27-3.42
					c0.26-3.73,0.43-7.73,0.46-12.1c0.01-1.13,0-2.27-0.01-3.45c-0.04-3.78-0.2-7.82-0.51-12.17c-0.03-0.39-0.05-0.78-0.08-1.17
					c-0.06-0.76-0.11-1.53-0.14-2.3c-0.2-3.97-0.15-8.06,0.08-12.13c0.06-1.14,0.14-2.29,0.22-3.43c0.31-4.08,0.77-8.12,1.3-11.99
					c0.16-1.15,0.32-2.29,0.49-3.41c0.64-4.24,1.32-8.24,1.95-11.81c0.21-1.17,0.41-2.3,0.6-3.38c0.43-2.41,0.8-4.56,1.07-6.38
					c-4.29-2.27-7.99-4.27-10.06-5.72c-0.56,0.91-3.89,5.95-8.26,6.33c-4.79,0.42-9.05-5.21-9.05-5.21v-1.08
					C122.75,205.72,119.73,207.42,116.23,209.32z"/>
				<g>
					<g>
						<path class="st13" d="M117.59,218.79c0.16,1.1,0.33,2.24,0.49,3.41c4.3,0.1,9.35-0.55,15.44-1.95
							c6.52-1.5,12.26-1.24,16.8-0.4c0.21-1.17,0.41-2.3,0.6-3.38c-4.91-0.91-11.11-1.17-18.16,0.46
							C126.75,218.32,121.74,218.95,117.59,218.79z"/>
					</g>
					<g>
						<path class="st13" d="M119.66,234.39c0.13,1.13,0.25,2.26,0.36,3.39c3.86-0.1,8.3-0.75,13.49-1.95
							c5.39-1.24,10.26-1.27,14.36-0.76c0.16-1.15,0.32-2.29,0.49-3.41c-4.44-0.55-9.73-0.5-15.61,0.85
							C127.71,233.68,123.38,234.31,119.66,234.39z"/>
					</g>
					<g>
						<path class="st13" d="M120.88,249.93c0.04,1.16,0.05,2.3,0.05,3.4c3.65-0.17,7.8-0.81,12.59-1.91
							c4.74-1.09,9.07-1.25,12.83-0.92c0.06-1.14,0.14-2.29,0.22-3.43c-4.05-0.33-8.71-0.14-13.82,1.03
							C128.25,249.14,124.32,249.75,120.88,249.93z"/>
					</g>
					<g>
						<path class="st13" d="M119.39,268.96c4.01-0.05,8.65-0.7,14.13-1.96c4.8-1.11,9.18-1.25,12.98-0.91
							c-0.03-0.39-0.05-0.78-0.08-1.17c-0.06-0.76-0.11-1.53-0.14-2.3c-3.98-0.3-8.54-0.09-13.52,1.06
							c-4.98,1.15-9.27,1.78-12.96,1.87C119.64,266.71,119.51,267.85,119.39,268.96z"/>
					</g>
					<g>
						<path class="st13" d="M118.63,284.55c4.18,0.03,9.06-0.61,14.88-1.96c5.03-1.16,9.59-1.27,13.5-0.87
							c0.01-1.13,0-2.27-0.01-3.45c-4.15-0.38-8.96-0.22-14.25,1c-5.51,1.27-10.17,1.91-14.11,1.88
							C118.63,282.31,118.62,283.44,118.63,284.55z"/>
					</g>
					<g>
						<path class="st13" d="M119.27,296.73c0.11,1.15,0.22,2.28,0.34,3.39c3.96-0.06,8.53-0.71,13.9-1.95
							c4.72-1.09,9.03-1.25,12.77-0.94c0.1-1.11,0.19-2.25,0.27-3.42c-4.05-0.33-8.7-0.14-13.81,1.03
							C127.54,296.05,123.07,296.69,119.27,296.73z"/>
					</g>
					<g>
						<path class="st13" d="M121.18,312.25c0.16,1.13,0.31,2.25,0.45,3.38c3.47-0.22,7.39-0.84,11.88-1.87
							c4.02-0.93,7.74-1.18,11.07-1.05c0.13-1.12,0.27-2.25,0.41-3.41c-3.67-0.17-7.79,0.11-12.25,1.14
							C128.38,311.44,124.55,312.05,121.18,312.25z"/>
					</g>
					<g>
						<path class="st13" d="M122.67,327.72c0.03,1.09,0.05,2.23,0.05,3.41c3.2-0.27,6.77-0.86,10.8-1.8
							c3.54-0.81,6.86-1.11,9.87-1.08c0-1.14,0.03-2.28,0.09-3.42c-3.27-0.03-6.87,0.29-10.72,1.18
							C129.01,326.88,125.67,327.45,122.67,327.72z"/>
					</g>
					<g>
						<path class="st13" d="M122.31,346.75c3.3-0.25,7.01-0.86,11.2-1.83c3.95-0.91,7.62-1.17,10.92-1.04
							c-0.05-1.17-0.12-2.32-0.21-3.44c-3.47-0.1-7.32,0.2-11.47,1.16c-3.82,0.88-7.24,1.46-10.29,1.72
							C122.42,344.45,122.37,345.6,122.31,346.75z"/>
					</g>
					<g>
						<path class="st13" d="M121.33,362.4c3.55-0.2,7.57-0.83,12.19-1.89c3.93-0.91,7.58-1.17,10.85-1.05
							c0.05-1.14,0.09-2.28,0.12-3.43c-3.54-0.12-7.48,0.17-11.74,1.16c-4.19,0.97-7.9,1.57-11.17,1.79
							C121.5,360.12,121.41,361.26,121.33,362.4z"/>
					</g>
					<g>
						<path class="st13" d="M119.99,378.04c3.87-0.1,8.32-0.75,13.52-1.95c3.54-0.81,6.85-1.11,9.86-1.08
							c0.09-1.11,0.18-2.25,0.27-3.42c-3.32-0.05-6.97,0.27-10.89,1.17c-4.75,1.1-8.87,1.72-12.44,1.86
							C120.21,375.79,120.1,376.93,119.99,378.04z"/>
					</g>
				</g>
			</g>
			<g>
				<g>
					<path class="st12" d="M146.92,389.17c0.52-0.03,1.03-0.07,1.55-0.11c3.07-18.04,1.3-44.53,0.64-52.64
						c-0.68-8.43,0.63-19.26,3.6-29.72c2.3-8.12,0.89-26.96-0.24-42.09c-0.32-4.25-0.62-8.26-0.8-11.56
						c-0.58-10.65,3.28-30.37,5.4-40.25c-0.47-0.25-0.94-0.5-1.4-0.74c-2.13,9.78-6.13,29.95-5.52,41.08
						c0.18,3.31,0.49,7.33,0.8,11.59c1.13,15.02,2.53,33.7,0.3,41.56c-3.02,10.63-4.35,21.66-3.65,30.26
						C148.26,344.66,150.04,371.31,146.92,389.17z"/>
				</g>
				<g>
					<path class="st12" d="M115.48,315.75c1.8,11.09,1.24,18.3,0.58,26.64c-0.21,2.7-0.43,5.48-0.59,8.56
						c-0.48,9.65-2.11,29.1-2.84,37.5c0.5,0.06,1,0.11,1.51,0.16c0.72-8.41,2.36-27.9,2.85-37.59c0.15-3.05,0.37-5.83,0.58-8.51
						c0.66-8.44,1.24-15.73-0.59-27c-0.39-2.42-0.81-4.88-1.22-7.32c-2.04-12.09-4.16-24.59-3.16-30.58
						c0.24-1.46,0.55-3.12,0.89-4.88c1.36-7.23,3.05-16.22,2.52-24.03c-0.53-7.74-3.7-28.69-4.92-36.58
						c-0.47,0.25-0.94,0.51-1.41,0.77c1.27,8.26,4.3,28.4,4.82,35.92c0.52,7.61-1.15,16.5-2.49,23.65
						c-0.33,1.77-0.65,3.43-0.89,4.91c-1.04,6.24,1,18.31,3.16,31.09C114.68,310.88,115.09,313.33,115.48,315.75z"/>
				</g>
			</g>
		</g>
		<g>
			<path class="st10" d="M85.66,238.62c0,0-15.44,51.48-19.26,69.83c-3.82,18.35-4.12,56.48-4.12,56.48s-6.75,14.01-6.91,20.24
				c-0.17,6.65,3.32,11.93,2.92,16.28c-0.4,4.35,4.9,1.99,3.4-6.82s2.75-16.79,4.58-16.53c1.83,0.26-1.52,9.62,0.11,12.99
				c1.63,3.37,3.73-3.18,5.83-7.16c2.17-4.13,2.05-13.14,1.06-19.57c-0.99-6.43,10.67-45.5,10.73-56.82l14.76-49.89
				C98.76,257.66,93.88,236.84,85.66,238.62z"/>
			<path class="st5" d="M100.65,256.41c-0.52,3.31-2.35,8.99-4.72,16.13v0c-0.2,0.6-0.41,1.22-0.61,1.84
				c-0.01,0.03-0.02,0.06-0.03,0.09c-0.59,1.78-1.21,3.64-1.85,5.56c0,0.01-0.01,0.02-0.01,0.03c-2.62,7.95-5.52,17.04-7.95,26.39
				c-0.84,3.2-1.62,6.43-2.31,9.65c-0.89,4.11-1.64,8.21-2.19,12.22c-1.97,14.45-5.75,32.76-5.75,32.76
				c-5.54,2.27-14.19-0.73-14.19-0.73s-0.22-26.37,1.01-36.61c1.53-12.67,3.47-21.68,5.88-32.04c6.63-28.49,18.3-56.36,21.5-63.76
				c0.25-0.59,0.45-1.05,0.59-1.37h2.75C98.22,230.04,102.06,247.5,100.65,256.41z"/>
			<path class="st4" d="M60.6,355.09l0.43,6.07c0,0,8.23,2.67,14.4,0.79l1.63-5.41C71.12,356.85,65.64,356.7,60.6,355.09z"/>
			<g>
				<path class="st12" d="M95.93,272.54L95.93,272.54c0,0.09-0.02,0.18-0.05,0.27c-0.19,0.51-0.38,1.04-0.56,1.58
					c-0.01,0.03-0.02,0.06-0.03,0.09c-0.61,1.72-1.22,3.59-1.85,5.56c0,0.01-0.01,0.02-0.01,0.03c-3.22,10.25-6.5,23.14-8.01,31.37
					c0.02-1.66,0.03-3.32,0.06-4.98c-0.84,3.2-1.62,6.43-2.31,9.65c0.31-3.02,1.17-7.54,2.35-12.67
					c2.38-10.37,6.03-23.22,8.93-31.15c0.14-0.39,0.58-0.59,0.97-0.45C95.74,271.95,95.93,272.23,95.93,272.54z"/>
			</g>
		</g>
	</g>
	<g>
		<g>
			<g>
				<g>
					<path class="st6" d="M372.07,408.68h36.46c-0.12-2.53-0.24-4.95-0.36-7.24c-0.64-12.49-1.18-20.99-1.18-20.99l-29.66,1.32
						l-2.46,0.11l-4.36,0.2c0,0,0.42,7.6,1.08,18.74C371.75,403.28,371.91,405.91,372.07,408.68z"/>
				</g>
			</g>
			<path class="st7" d="M374.89,381.88l-4.36,0.2c0,0,0.42,7.6,1.08,18.74c11.39,0.95,23.83,1.34,36.58,0.62
				c-0.64-12.49-1.18-20.99-1.18-20.99l-29.66,1.32L374.89,381.88z"/>
			<g>
				<path class="st7" d="M378.86,408.68c-0.67-11.56-1.21-21.43-1.51-26.91l-2.46,0.11c0.3,5.46,0.84,15.28,1.51,26.8H378.86z"/>
			</g>
		</g>
		<g>
			<g>
				<g>
					<path class="st6" d="M361.37,408.68c0.19-3.13,0.36-6.1,0.52-8.84c0.63-10.61,1.02-17.77,1.02-17.77l-4.73-0.21l-2.46-0.11
						l-29.29-1.3c0,0-0.32,5.07-0.76,13.12c-0.23,4.29-0.5,9.44-0.77,15.11H361.37z"/>
				</g>
			</g>
			<path class="st7" d="M325.68,393.57c7.95,1.87,20.77,4.49,36.22,6.27c0.63-10.61,1.02-17.77,1.02-17.77l-4.73-0.21l-2.46-0.11
				l-29.29-1.3C326.44,380.45,326.12,385.52,325.68,393.57z"/>
			<g>
				<path class="st7" d="M356.68,408.68c0.67-11.53,1.21-21.36,1.51-26.82l-2.45-0.11c-0.3,5.48-0.85,15.36-1.51,26.93H356.68z"/>
			</g>
		</g>
		<g>
			<g>
				<g>
					<path class="st5" d="M412.3,386.13c-7.43,2.04-14.86,3.59-22.28,4.62c-2.58,0.36-5.16,0.67-7.75,0.9
						c-3.48,0.32-6.96,0.54-10.44,0.65c-5.75,0.18-11.51,0.05-17.26-0.38c-11.13-0.81-22.25-2.76-33.38-5.8
						c-0.1-10.38,0.05-47.59,0.83-83.48c0.04-1.61,0.07-3.22,0.11-4.82c0.01-0.34,0.02-0.68,0.02-1.02
						c0.01-0.37,0.02-0.74,0.03-1.11c0.03-1.14,0.06-2.27,0.08-3.4c0.06-2.31,0.12-4.59,0.18-6.86c0.04-1.35,0.08-2.7,0.12-4.03
						c0.01-0.28,0.02-0.55,0.03-0.83c0.03-0.88,0.06-1.75,0.08-2.62c0,0,0,0,0,0c0.01-0.27,0.02-0.54,0.03-0.81
						c0.03-0.8,0.05-1.6,0.08-2.39c0.03-0.67,0.05-1.34,0.07-2c0.86-24.21,2.12-43.31,3.93-46c3.06-4.56,13.48-10.62,21.86-15.56
						c2.99-1.75,6.55-3.58,8.59-4.93c2.98,2.4,5.14,4.56,9.55,4.41c4.94-0.17,6.15-3.14,8.04-5.68c1.15,0.75,4.07,3.14,5.59,4.03
						c1.3,0.77,2.7,1.58,4.17,2.42c2.27,1.3,4.68,2.68,7.07,4.08c3.54,2.08,7.03,4.23,9.93,6.29c2.89,2.05,5.19,4.02,6.32,5.72
						c1.64,2.46,2.7,18.39,3.38,39.35c0.03,0.73,0.05,1.48,0.08,2.23c0,0.09,0,0.18,0,0.27c0.03,0.76,0.05,1.54,0.07,2.32
						c0.07,2.36,0.13,4.77,0.2,7.22c0.01,0.52,0.03,1.04,0.03,1.56c0.01,0.39,0.02,0.78,0.03,1.17c0.02,1.01,0.05,2.02,0.07,3.04
						c0.01,0.2,0.01,0.41,0.01,0.61c0.06,2.69,0.11,5.42,0.16,8.17c0.02,0.8,0.03,1.61,0.04,2.42
						C412.58,333.63,412.44,374.98,412.3,386.13z"/>
				</g>
			</g>
			<path class="st12" d="M411.96,295.9l-11.76,11.93l-10.96-11.11l-10.96,11.11l-11-11.16l-11,11.16l-11.07-11.23l-11.07,11.23
				l-11.96-12.13c0.03-1.14,0.06-2.27,0.08-3.4c0.06-2.31,0.12-4.59,0.18-6.86l11.69-11.86l11.07,11.23l11.07-11.23l11,11.16
				l11-11.16l10.96,11.11l10.96-11.11l11.57,11.72c0.06,2.69,0.11,5.42,0.16,8.17C411.94,294.28,411.95,295.09,411.96,295.9z"/>
			<g>
				<path class="st12" d="M391.66,357.39C391.66,357.39,391.66,357.39,391.66,357.39c-15.75-0.07-29.2-7.24-37.7-13.24
					c-9.2-6.49-14.77-13.06-14.83-13.13c-0.27-0.32-0.23-0.8,0.09-1.07c0.32-0.27,0.8-0.23,1.07,0.09
					c0.05,0.06,5.53,6.51,14.57,12.89c8.32,5.86,21.46,12.87,36.8,12.93c0.42,0,0.76,0.34,0.75,0.76
					C392.42,357.06,392.08,357.39,391.66,357.39z"/>
			</g>
			<g>
				<path class="st12" d="M381.84,348.08c-13.41-2.64-25.28-12.91-25.82-13.38c-0.32-0.28-0.35-0.75-0.07-1.07
					c0.28-0.32,0.75-0.35,1.07-0.07c0.14,0.12,14.11,12.2,28.34,13.5c0.42,0.03,0.72,0.41,0.69,0.82c-0.04,0.42-0.41,0.72-0.82,0.69
					C384.08,348.46,382.95,348.3,381.84,348.08z"/>
			</g>
			<g>
				<path class="st12" d="M354.98,231.53c-0.36,0-0.67-0.25-0.74-0.62c-0.08-0.41,0.19-0.81,0.6-0.89
					c19.2-3.64,24.99-16,25.05-16.12c0.17-0.38,0.62-0.55,1-0.38c0.38,0.17,0.55,0.62,0.38,1c-0.24,0.54-6.18,13.2-26.14,16.99
					C355.07,231.52,355.02,231.53,354.98,231.53z"/>
			</g>
			<g>
				<path class="st12" d="M331.55,264.78L331.55,264.78c-0.02,0.09-0.06,0.17-0.1,0.25c-0.29,0.46-0.59,0.94-0.89,1.42
					c-0.02,0.03-0.03,0.05-0.05,0.08c-0.96,1.55-1.96,3.25-2.99,5.04c0,0.01-0.01,0.02-0.02,0.03c-1.61,2.82-3.28,5.88-4.91,8.98
					c0.03-0.88,0.06-1.75,0.08-2.62c0,0,0,0,0,0c0.01-0.27,0.02-0.54,0.03-0.81c2.63-4.89,5.26-9.46,7.46-12.93
					c0.23-0.36,0.69-0.46,1.05-0.23C331.49,264.16,331.61,264.48,331.55,264.78z"/>
			</g>
		</g>
		<g>
			<path class="st10" d="M428.31,236.69c0,0,24.55-7.89,31.82-24c2.1-4.67-15.21-52.05-15.21-52.05l-8.36,0.4
				c0,0,2.38,16.44,3.83,25.75c1.19,7.65,3.11,16.8,3.75,19.81c0.14,0.65,0.22,1.02,0.22,1.02c-0.41,0.07-0.82,0.15-1.24,0.23
				c-11.47,2.33-26.12,9.8-26.12,9.8L428.31,236.69z"/>
			<g>
				<g>
					<path class="st8" d="M450.53,212.16c0.35,0.25,0.85,0.18,1.1-0.17c0.26-0.36,0.18-0.85-0.17-1.1c-1.79-1.3-4.48-2.82-7.31-4.29
						c0.14,0.65,0.22,1.02,0.22,1.02c-0.41,0.07-0.82,0.15-1.24,0.23C446,209.33,448.76,210.88,450.53,212.16z"/>
				</g>
			</g>
			<path class="st5" d="M390.74,215.02c0,0-7.43,17.43,11.48,27.13c13.09,6.72,42.9-10.82,42.9-10.82l-10.63-22.56
				C434.49,208.77,407.21,220.02,390.74,215.02z"/>
			<path class="st10" d="M440.64,134c-0.74,0.52-0.59,3.72-0.26,6.74c-0.1,0.02-0.21,0.03-0.32,0.05
				c-0.88-4.02-2.63-10.87-4.13-9.56c-0.98,0.86,0.33,6.76,1.23,10.29c-0.18,0.06-0.37,0.12-0.55,0.18
				c-1.13-4.19-3.56-12.26-5.17-10.69c-1.08,1.05,0.99,8.15,2.14,11.78c-0.16,0.06-0.32,0.12-0.47,0.19
				c-1.1-3.52-3.45-10.17-5.06-8.61c-1.46,1.42,2.72,11.47,2.72,11.47l0,0l1.1,3.95c0,0-1.3,0.56-3.33-1.74
				c-2.03-2.3-4.46-2.7-2.77,0.62c1.91,3.76,4.73,6.45,5.97,9.11c1.24,2.66,5.15,3.54,5.15,3.54l7.85-0.38
				c0,0,1.52-13.26-1.41-19.59l0,0C442.81,137.59,441.93,133.1,440.64,134z"/>
		</g>
		<g>
			<path class="st6" d="M343.55,164.59c0,13.37,8.23,22.58,21.59,22.58c13.37,0,22.68-9.9,22.68-23.27c0-3.69-0.6-7.13-1.76-10.17
				c-0.07-0.18-0.14-0.36-0.21-0.54c-0.14-0.35-0.29-0.69-0.45-1.03c-0.23-0.52-0.49-1.02-0.77-1.51
				c-3.48-6.26-9.72-10.24-18.1-10.24C350.51,140.41,343.55,151.23,343.55,164.59z"/>
			<g>
				<path class="st8" d="M346.55,170.35c0,0-3.71-4.95-6.47-0.86c-2.76,4.09,1.14,16.19,7.9,13.23L346.55,170.35z"/>
				<g>
					<path class="st9" d="M346.5,178.99c-0.25,0-0.48-0.17-0.55-0.42c-1.05-3.73-4.92-5.25-4.95-5.26
						c-0.29-0.11-0.44-0.44-0.33-0.74c0.11-0.29,0.44-0.44,0.74-0.33c0.18,0.07,4.44,1.72,5.65,6.02c0.09,0.3-0.09,0.62-0.4,0.7
						C346.61,178.98,346.55,178.99,346.5,178.99z"/>
				</g>
				<g>
					<path class="st9" d="M342.6,177.11c-0.11,0-0.21-0.03-0.31-0.09c-0.27-0.17-0.34-0.52-0.17-0.79c0.03-0.04,0.71-1.09,2.14-1.73
						c0.29-0.13,0.63,0,0.75,0.29c0.13,0.29,0,0.63-0.29,0.75c-1.11,0.5-1.64,1.3-1.65,1.3
						C342.97,177.01,342.79,177.11,342.6,177.11z"/>
				</g>
			</g>
			<g>
				<path class="st8" d="M384.82,170.35c0,0,3.71-4.95,6.47-0.86c2.76,4.09-1.14,16.19-7.9,13.23L384.82,170.35z"/>
				<g>
					<path class="st9" d="M384.86,178.99c0.25,0,0.48-0.17,0.55-0.42c1.05-3.73,4.92-5.25,4.95-5.26c0.29-0.11,0.44-0.44,0.33-0.74
						c-0.11-0.29-0.44-0.44-0.74-0.33c-0.18,0.07-4.44,1.72-5.65,6.02c-0.08,0.3,0.09,0.62,0.4,0.7
						C384.76,178.98,384.81,178.99,384.86,178.99z"/>
				</g>
				<g>
					<g>
						<g>
							<path class="st9" d="M388.77,177.11c0.11,0,0.21-0.03,0.31-0.09c0.27-0.17,0.34-0.52,0.17-0.79
								c-0.03-0.04-0.71-1.09-2.14-1.73c-0.29-0.13-0.63,0-0.75,0.29c-0.13,0.29,0,0.63,0.29,0.75c1.11,0.5,1.64,1.3,1.65,1.3
								C388.4,177.01,388.58,177.11,388.77,177.11z"/>
						</g>
					</g>
				</g>
			</g>
			<path class="st10" d="M374.82,192.98V205c0,0-3.59,6.12-8.44,6.54c-4.84,0.42-9.15-5.27-9.15-5.27v-12.45L374.82,192.98z"/>
			<path class="st8" d="M374.82,192.98v5.34c-3.25,3.61-9.03,4.51-17.59,3.25v-7.74L374.82,192.98z"/>
			<path class="st10" d="M387.5,162.1c-0.22,4.67-0.67,10.52-1.56,15.19c-0.22,1.17-0.47,2.26-0.75,3.24
				c-2.53,8.86-8.86,24.06-26.58,17.73c-7.83-2.79-11.45-11.51-13.07-20.38c-1.1-6.02-1.26-12.1-1.18-16.45
				c0.09-4.44,2.51-8.49,6.37-10.68c10.46-5.93,21.5-3.72,28.76-0.93C384.53,151.76,387.76,156.71,387.5,162.1z"/>
			<path class="st6" d="M358.09,171.92c0,1.28-0.66,2.32-1.48,2.32c-0.82,0-1.48-1.04-1.48-2.32c0-1.28,0.66-2.32,1.48-2.32
				C357.42,169.59,358.09,170.63,358.09,171.92z"/>
			<path class="st6" d="M375.5,171.87c0,1.28-0.66,2.32-1.48,2.32c-0.82,0-1.48-1.04-1.48-2.32c0-1.28,0.66-2.32,1.48-2.32
				C374.84,169.54,375.5,170.58,375.5,171.87z"/>
			<path class="st6" d="M378.84,163.88c0,0-4.66-1.84-8.25-0.29l0.36,2c0,0,5.27-0.45,7.92,0.63
				C379.11,165.45,379.14,164.67,378.84,163.88z"/>
			<path class="st6" d="M351.68,163.88c0,0,4.66-1.84,8.25-0.29l-0.36,2c0,0-5.27-0.45-7.92,0.63
				C351.41,165.45,351.37,164.67,351.68,163.88z"/>
			<g>
				<path class="st8" d="M365.88,181.66c0.96,0,1.92-0.38,2.07-0.44c0.29-0.12,0.43-0.45,0.31-0.74c-0.12-0.29-0.45-0.43-0.74-0.31
					c-0.52,0.21-1.75,0.54-2.29,0.22c-0.1-0.06-0.25-0.19-0.28-0.53c-0.21-1.99,0.34-8.68,0.35-8.75c0.03-0.31-0.21-0.59-0.52-0.62
					c-0.32-0.03-0.59,0.21-0.62,0.52c-0.02,0.28-0.56,6.86-0.34,8.96c0.08,0.79,0.5,1.19,0.83,1.39
					C365.01,181.58,365.44,181.66,365.88,181.66z"/>
			</g>
			<path class="st11" d="M358.21,184.56c0.95,3.3,3.65,6.58,7.37,6.63c3.71-0.05,6.41-3.33,7.36-6.63H358.21z"/>
			<g>
				<path class="st8" d="M365.26,194.77c1.48,0,2.73-0.75,2.78-0.78c0.27-0.16,0.36-0.51,0.19-0.78c-0.16-0.27-0.51-0.36-0.78-0.19
					c-0.01,0.01-1.04,0.62-2.19,0.62c-1.06,0-2.07-0.61-2.08-0.61c-0.27-0.17-0.62-0.08-0.79,0.19c-0.17,0.27-0.08,0.62,0.19,0.79
					C362.63,194.02,363.87,194.77,365.26,194.77z"/>
			</g>
			<path class="st6" d="M386.9,170.45h-2.59c0.29-2.6,0.7-7.18-1.44-7.83c-6.75-2.07,2-6.84-1.05-9.22
				c-3.04-2.38-10.62-1.36-15.89-1.53c-5.3-0.17-13.83-0.1-15.89,0.38c-2.07,0.47-0.94,3.92-0.18,6.58c0.77,2.66-2.54,5.61-3.1,8.37
				c-0.16,0.79-0.13,1.97,0,3.24h-2.16c-0.26-3.36-0.29-6.48-0.25-9.02c0.09-4.44,2.51-8.49,6.37-10.68
				c10.46-5.93,21.5-3.72,28.76-0.93c5.04,1.94,8.27,6.89,8.01,12.28C387.38,164.66,387.19,167.57,386.9,170.45z"/>
			<g>
				<g>
					<path class="st11" d="M356.35,178.65c-3.57,0-6.47-2.9-6.47-6.47c0-3.57,2.9-6.47,6.47-6.47c3.57,0,6.47,2.9,6.47,6.47
						C362.81,175.74,359.91,178.65,356.35,178.65z M356.35,166.72c-3.01,0-5.46,2.45-5.46,5.46c0,3.01,2.45,5.46,5.46,5.46
						c3.01,0,5.46-2.45,5.46-5.46C361.81,169.17,359.36,166.72,356.35,166.72z"/>
				</g>
				<g>
					<path class="st11" d="M374.02,178.65c-3.57,0-6.47-2.9-6.47-6.47c0-3.57,2.9-6.47,6.47-6.47c3.57,0,6.47,2.9,6.47,6.47
						C380.49,175.74,377.59,178.65,374.02,178.65z M374.02,166.72c-3.01,0-5.46,2.45-5.46,5.46c0,3.01,2.45,5.46,5.46,5.46
						s5.46-2.45,5.46-5.46C379.48,169.17,377.03,166.72,374.02,166.72z"/>
				</g>
				<g>
					<path class="st11" d="M350.97,170.1c-0.13,0-0.26-0.05-0.36-0.15l0,0c-0.03-0.03-2.97-2.88-6.82-1.98
						c-0.27,0.06-0.54-0.11-0.61-0.38c-0.06-0.27,0.11-0.54,0.38-0.61c4.41-1.03,7.63,2.11,7.76,2.25c0.2,0.2,0.2,0.52,0,0.71
						C351.23,170.05,351.1,170.1,350.97,170.1z"/>
				</g>
				<g>
					<path class="st11" d="M379.52,170.1c-0.16,0-0.33-0.08-0.42-0.23c-0.15-0.23-0.09-0.55,0.15-0.7c0.19-0.13,4.77-3.08,8.66-2.44
						c0.27,0.05,0.46,0.3,0.42,0.58c-0.05,0.27-0.3,0.46-0.58,0.42c-3.5-0.58-7.9,2.26-7.95,2.29
						C379.71,170.07,379.61,170.1,379.52,170.1z"/>
				</g>
				<g>
					<path class="st11" d="M367.91,170.73c-0.01-0.02-1.21-1.64-2.78-1.64c-1.56,0-2.64,1.62-2.65,1.63l-0.84-0.55
						c0.06-0.09,1.39-2.09,3.5-2.09c2.1,0,3.54,1.97,3.6,2.05L367.91,170.73z"/>
				</g>
			</g>
		</g>
		<g>
			<path class="st10" d="M329.42,263.83c0,0-6.81,13.19-14.83,23.64c-2.37,3.08-4.84,5.93-7.27,8.12
				c-3.94,3.56-7.79,5.42-10.92,3.84c-11.62-5.86-37.52-52.47-37.52-52.47l6.38-7.57c0,0,11.53,13.31,19.96,21.28
				c7.78,7.35,13.75,12.84,13.75,12.84c1.08-1.64,2.22-3.43,3.42-5.33c1.27-2.02,2.58-4.15,3.92-6.35
				c9.71-15.94,20.48-35.07,20.48-35.07L329.42,263.83z"/>
			<path class="st8" d="M314.58,287.47c-2.37,3.08-4.84,5.93-7.27,8.12l-4.94-27.41c1.27-2.02,2.58-4.15,3.92-6.35L314.58,287.47z"
				/>
			<path class="st5" d="M326.78,226.76l-23.28,36.62l7.81,32.21l19.27-31.37C330.58,264.22,332.91,242.75,326.78,226.76z"/>
		</g>
	</g>
	<g>
		<g>
			<path class="st5" d="M297.5,408.68c-1.66-9.22-3.3-19.61-4.79-29.7c-0.33-2.23-0.65-4.45-0.96-6.63
				c-1.19-8.36-2.26-16.26-3.12-22.82c-0.33-2.49-0.62-4.79-0.89-6.84c-0.83-6.55-1.32-10.61-1.32-10.61l-36.77,1.39l-36.88-1.39
				c0,0-0.95,8.05-2.47,19.71c-0.28,2.12-0.57,4.36-0.89,6.7c-0.82,6.12-1.75,12.88-2.76,19.8c-0.01,0.1-0.03,0.2-0.05,0.3
				c-0.32,2.16-0.63,4.33-0.97,6.5c0,0.03-0.01,0.06-0.01,0.09v0c-0.79,5.25-1.62,10.49-2.46,15.53c-0.35,2.08-0.7,4.13-1.05,6.12
				c-0.11,0.62-0.22,1.23-0.33,1.84H297.5z"/>
			<g>
				<path class="st12" d="M221.25,343.12c0,1.91-1.55,3.47-3.47,3.47c-1.91,0-3.47-1.55-3.47-3.47c0-1.91,1.55-3.47,3.47-3.47
					C219.7,339.66,221.25,341.21,221.25,343.12z"/>
				<path class="st12" d="M229.85,356.55c0,1.91-1.55,3.47-3.47,3.47c-1.91,0-3.47-1.55-3.47-3.47c0-1.91,1.55-3.47,3.47-3.47
					C228.3,353.08,229.85,354.63,229.85,356.55z"/>
				<path class="st12" d="M246.77,349.62c0,1.91-1.55,3.47-3.47,3.47c-1.91,0-3.47-1.55-3.47-3.47c0-1.91,1.55-3.47,3.47-3.47
					C245.21,346.15,246.77,347.7,246.77,349.62z"/>
				<path class="st12" d="M220.06,370.8c0,1.91-1.55,3.47-3.47,3.47c-1.91,0-3.47-1.55-3.47-3.47c0-1.91,1.55-3.47,3.47-3.47
					C218.51,367.34,220.06,368.89,220.06,370.8z"/>
				<path class="st12" d="M241.2,369.32c0,1.91-1.55,3.47-3.47,3.47c-1.91,0-3.47-1.55-3.47-3.47s1.55-3.47,3.47-3.47
					C239.65,365.86,241.2,367.41,241.2,369.32z"/>
				<path class="st12" d="M212.55,355.04c0,1.8-1.38,3.29-3.14,3.45c0.31-2.34,0.61-4.58,0.89-6.7
					C211.62,352.28,212.55,353.55,212.55,355.04z"/>
				<path class="st12" d="M275.66,389.68c0,1.91-1.55,3.47-3.47,3.47c-1.91,0-3.47-1.55-3.47-3.47c0-1.91,1.55-3.47,3.47-3.47
					C274.11,386.22,275.66,387.77,275.66,389.68z"/>
				<path class="st12" d="M274.02,370.8c0,1.91-1.55,3.47-3.47,3.47c-1.91,0-3.47-1.55-3.47-3.47c0-1.91,1.55-3.47,3.47-3.47
					C272.47,367.34,274.02,368.89,274.02,370.8z"/>
				<path class="st12" d="M292.71,378.98c-0.42,0.18-0.88,0.27-1.36,0.27c-1.91,0-3.46-1.55-3.46-3.46c0-1.91,1.55-3.46,3.46-3.46
					c0.14,0,0.27,0.01,0.4,0.03C292.06,374.53,292.38,376.75,292.71,378.98z"/>
				<path class="st12" d="M277.49,403.52c0,1.91-1.55,3.47-3.47,3.47c-1.91,0-3.47-1.55-3.47-3.47c0-1.91,1.55-3.47,3.47-3.47
					C275.93,400.05,277.49,401.6,277.49,403.52z"/>
				<path class="st12" d="M292.31,397.99c0,1.91-1.55,3.47-3.47,3.47c-1.91,0-3.47-1.55-3.47-3.47c0-1.91,1.55-3.47,3.47-3.47
					C290.76,394.52,292.31,396.07,292.31,397.99z"/>
				<path class="st12" d="M261.46,408.68c-0.62-0.91-1.67-1.51-2.86-1.51c-1.19,0-2.23,0.6-2.86,1.51H261.46z"/>
				<path class="st12" d="M217.78,392.7c0,1.91-1.55,3.47-3.47,3.47c-1.91,0-3.47-1.55-3.47-3.47c0-1.91,1.55-3.47,3.47-3.47
					C216.23,389.23,217.78,390.78,217.78,392.7z"/>
				<path class="st12" d="M208.64,381.75c0,1.76-1.31,3.21-3.01,3.43c0.01-0.03,0.01-0.06,0.01-0.09c0.33-2.17,0.65-4.34,0.97-6.5
					C207.8,379.14,208.64,380.35,208.64,381.75z"/>
				<path class="st12" d="M204.59,403.51c0,1.57-1.04,2.89-2.47,3.32c0.35-1.99,0.7-4.04,1.05-6.12
					C204.03,401.35,204.59,402.37,204.59,403.51z"/>
				<path class="st12" d="M226.38,404.98c0,1.91-1.55,3.47-3.47,3.47c-1.91,0-3.47-1.55-3.47-3.47s1.55-3.47,3.47-3.47
					C224.83,401.52,226.38,403.07,226.38,404.98z"/>
				<path class="st12" d="M244.67,402.27c0,1.91-1.55,3.47-3.47,3.47s-3.47-1.55-3.47-3.47c0-1.91,1.55-3.47,3.47-3.47
					S244.67,400.35,244.67,402.27z"/>
				<path class="st12" d="M231.62,385.23c0,1.91-1.55,3.47-3.47,3.47c-1.91,0-3.47-1.55-3.47-3.47c0-1.91,1.55-3.47,3.47-3.47
					C230.07,381.76,231.62,383.32,231.62,385.23z"/>
				<path class="st12" d="M250.23,381.76c0,1.91-1.55,3.47-3.47,3.47c-1.91,0-3.47-1.55-3.47-3.47s1.55-3.47,3.47-3.47
					C248.68,378.3,250.23,379.85,250.23,381.76z"/>
				<path class="st12" d="M258.61,363.48c0,1.91-1.55,3.47-3.47,3.47c-1.91,0-3.47-1.55-3.47-3.47c0-1.91,1.55-3.47,3.47-3.47
					C257.06,360.01,258.61,361.56,258.61,363.48z"/>
				<path class="st12" d="M288.63,349.53c-0.24,0.06-0.49,0.08-0.74,0.08c-1.92,0-3.46-1.55-3.46-3.46c0-1.86,1.47-3.39,3.32-3.46
					C288.01,344.74,288.3,347.04,288.63,349.53z"/>
				<path class="st12" d="M270.56,349.62c0,1.91-1.55,3.47-3.47,3.47c-1.91,0-3.47-1.55-3.47-3.47c0-1.91,1.55-3.47,3.47-3.47
					C269,346.15,270.56,347.7,270.56,349.62z"/>
				<path class="st12" d="M283.25,361.97c0,1.91-1.55,3.47-3.47,3.47s-3.47-1.55-3.47-3.47c0-1.91,1.55-3.47,3.47-3.47
					S283.25,360.05,283.25,361.97z"/>
				<path class="st12" d="M262.07,392.7c0,1.91-1.55,3.47-3.47,3.47c-1.91,0-3.47-1.55-3.47-3.47c0-1.91,1.55-3.47,3.47-3.47
					C260.52,389.23,262.07,390.78,262.07,392.7z"/>
			</g>
			<path class="st4" d="M288.66,332.99c-19.4,12.66-55.01,11.67-77.39,0c2.14-13.32,4.95-26.65,4.35-44.37
				c-0.07-1.94-0.15-3.87-0.25-5.79c-0.09-1.66-0.18-3.32-0.29-4.95c-1.93-29.49-6.96-53.6-4.49-56.71c1.08-1.36,2.88-2.84,5.1-4.34
				c0.87-0.59,1.8-1.2,2.79-1.8c2.32-1.42,4.9-2.84,7.5-4.24c6.15-3.28,12.4-6.33,15.53-8.41c3.1,1.35,5.58,2.09,8.24,2.08
				c0.07,0,0.15,0,0.23-0.01c0.07,0.01,0.15,0.01,0.22,0.01c2.66,0.01,5.14-0.73,8.24-2.08c2.9,1.93,8.37,4.63,13.95,7.56
				c4.1,2.16,8.26,4.45,11.5,6.68c2.12,1.45,3.85,2.88,4.91,4.22c1.22,1.54,0.71,8.32-0.34,18.35c-1.04,9.87-2.59,22.91-3.53,37.23
				c-0.26,3.98-0.47,8.06-0.62,12.19C283.71,306.34,286.52,319.67,288.66,332.99z"/>
			<g>
				<path class="st5" d="M276.8,318.26C276.8,318.26,276.79,318.26,276.8,318.26c-15.62-0.07-28.96-7.18-37.39-13.13
					c-9.12-6.44-14.65-12.96-14.7-13.02c-0.27-0.32-0.23-0.79,0.09-1.06c0.32-0.27,0.79-0.23,1.06,0.09
					c0.05,0.06,5.48,6.46,14.45,12.79c8.25,5.82,21.28,12.76,36.49,12.83c0.42,0,0.75,0.34,0.75,0.75
					C277.55,317.93,277.21,318.26,276.8,318.26z"/>
			</g>
			<g>
				<path class="st5" d="M266.46,309.17c-13.3-2.61-25.07-12.8-25.61-13.27c-0.31-0.27-0.34-0.75-0.07-1.06
					c0.27-0.31,0.75-0.34,1.06-0.07c0.14,0.12,13.99,12.1,28.11,13.39c0.42,0.03,0.72,0.4,0.68,0.82c-0.04,0.41-0.4,0.72-0.82,0.68
					C268.69,309.55,267.57,309.39,266.46,309.17z"/>
			</g>
			<g>
				<path class="st5" d="M246.77,240.36c-0.35,0-0.67-0.25-0.74-0.61c-0.08-0.41,0.19-0.8,0.6-0.88
					c19.04-3.61,24.78-15.86,24.84-15.99c0.17-0.38,0.62-0.55,0.99-0.38c0.38,0.17,0.55,0.62,0.38,0.99
					c-0.24,0.53-6.12,13.09-25.93,16.85C246.86,240.36,246.81,240.36,246.77,240.36z"/>
			</g>
			<path class="st10" d="M272.38,209.94c-3.78,8.62-13.07,17.55-25.16,15.46c-11.7-2.02-17.25-8.21-21.26-14.61
				c6.15-3.29,12.4-6.33,15.53-8.41c3.1,1.35,5.58,2.09,8.24,2.08c0.07,0,0.15,0,0.23-0.01c0.07,0.01,0.15,0.01,0.23,0.01
				c2.66,0.01,5.14-0.73,8.24-2.08C261.34,204.3,266.81,207,272.38,209.94z"/>
			<g>
				<path class="st11" d="M262.28,203.01c-0.33,0-0.6,0.26-0.6,0.59c0,0.48-0.2,11.88-10.43,12.76
					c-9.49,0.82-13.42-8.26-14.63-12.03c-0.07-0.22-0.28-0.37-0.51-0.37H236c-0.36,0-0.62,0.36-0.51,0.7
					c1.29,3.89,5.43,13.28,15.1,12.93c0.25-0.01,0.51-0.02,0.76-0.05c11.32-0.98,11.52-13.82,11.52-13.95
					C262.88,203.28,262.61,203.01,262.28,203.01z"/>
			</g>
		</g>
		<g>
			<path class="st6" d="M269.51,142.43c0,0,9.14,14.16,8.14,28.91c-1,14.75,1.35,31.78-11.85,31.03c-13.2-0.75-36.74,5.29-44.23-6.2
				C214.09,184.69,269.51,142.43,269.51,142.43z"/>
			<path class="st7" d="M272.9,168.47c0,0,2.37,21.38-7.77,27.27c-10.15,5.89-17.49-0.69-17.49-0.69S269.03,165.25,272.9,168.47z"/>
			<g>
				<g>
					<path class="st8" d="M230.76,168.37c0,0-3.64-4.86-6.35-0.84c-2.71,4.02,1.12,15.88,7.75,12.98L230.76,168.37z"/>
					<g>
						<path class="st9" d="M230.71,176.85c-0.24,0-0.47-0.16-0.54-0.41c-1.03-3.66-4.82-5.15-4.86-5.16
							c-0.29-0.11-0.43-0.43-0.32-0.72c0.11-0.29,0.43-0.43,0.72-0.33c0.18,0.07,4.36,1.69,5.54,5.91c0.08,0.3-0.09,0.61-0.39,0.69
							C230.81,176.84,230.76,176.85,230.71,176.85z"/>
					</g>
					<g>
						<path class="st9" d="M226.88,175c-0.1,0-0.21-0.03-0.3-0.09c-0.26-0.17-0.34-0.51-0.17-0.77c0.03-0.04,0.7-1.07,2.1-1.7
							c0.28-0.13,0.61,0,0.74,0.28c0.13,0.28,0,0.61-0.28,0.74c-1.09,0.49-1.61,1.27-1.62,1.28C227.24,174.91,227.06,175,226.88,175
							z"/>
					</g>
				</g>
				<g>
					<path class="st8" d="M268.3,168.37c0,0,3.64-4.86,6.35-0.84c2.71,4.02-1.12,15.88-7.75,12.98L268.3,168.37z"/>
					<g>
						<path class="st9" d="M268.35,176.85c0.25,0,0.47-0.16,0.54-0.41c1.03-3.66,4.82-5.15,4.86-5.16c0.29-0.11,0.43-0.43,0.32-0.72
							c-0.11-0.29-0.43-0.43-0.72-0.33c-0.18,0.07-4.36,1.69-5.54,5.91c-0.08,0.3,0.09,0.61,0.39,0.69
							C268.25,176.84,268.3,176.85,268.35,176.85z"/>
					</g>
					<g>
						<path class="st9" d="M272.18,175c0.1,0,0.21-0.03,0.3-0.09c0.26-0.17,0.34-0.51,0.17-0.77c-0.03-0.04-0.7-1.07-2.1-1.7
							c-0.28-0.13-0.61,0-0.74,0.28c-0.13,0.28,0,0.61,0.28,0.74c1.09,0.49,1.61,1.27,1.62,1.28
							C271.81,174.91,271.99,175,272.18,175z"/>
					</g>
				</g>
				<path class="st10" d="M258.5,190.58v11.8c0,0-3.52,6.01-8.28,6.42c-4.75,0.41-8.98-5.17-8.98-5.17v-12.21L258.5,190.58z"/>
				<path class="st8" d="M258.5,190.58v5.24c-3.19,3.54-8.86,4.8-17.25,3.56l0-7.97L258.5,190.58z"/>
				<path class="st10" d="M270.94,160.28c-0.22,4.58-0.66,10.32-1.53,14.9c-0.22,1.14-0.47,2.22-0.74,3.18
					c-2.48,8.69-8.69,23.6-26.08,17.39c-7.68-2.74-11.24-11.29-12.82-19.99c-1.08-5.91-1.24-11.88-1.16-16.14
					c0.08-4.35,2.46-8.33,6.25-10.48c10.26-5.82,21.09-3.65,28.22-0.91C268.02,150.13,271.19,154.99,270.94,160.28z"/>
				<path class="st6" d="M241.87,169.06c0,1.26-0.65,2.28-1.45,2.28c-0.8,0-1.45-1.02-1.45-2.28c0-1.26,0.65-2.28,1.45-2.28
					C241.22,166.78,241.87,167.8,241.87,169.06z"/>
				<path class="st6" d="M259.78,169.06c0,1.26-0.65,2.28-1.45,2.28s-1.45-1.02-1.45-2.28c0-1.26,0.65-2.28,1.45-2.28
					S259.78,167.8,259.78,169.06z"/>
				<path class="st6" d="M237.55,162.27c1.2-0.34,3.64-0.92,6.2-0.93c0.68,0,1.19,0.6,1.07,1.26l0,0.02
					c-0.1,0.53-0.57,0.91-1.11,0.88c-1.75-0.08-6.33,0.16-8.49,1.04c-0.04-0.38,0.18-0.79,0.49-1.15
					C236.19,162.84,236.85,162.47,237.55,162.27z"/>
				<path class="st6" d="M260.98,162.32c-1.2-0.34-3.64-0.92-6.2-0.93c-0.67,0-1.19,0.6-1.07,1.26l0,0.02
					c0.1,0.53,0.57,0.91,1.11,0.88c1.75-0.08,6.33,0.16,8.49,1.04c0.04-0.38-0.18-0.79-0.49-1.15
					C262.33,162.89,261.68,162.52,260.98,162.32z"/>
				<g>
					<path class="st8" d="M249.72,179.47c-0.43,0-0.86-0.08-1.22-0.29c-0.33-0.2-0.73-0.59-0.82-1.37
						c-0.21-2.06,0.31-8.52,0.34-8.79c0.03-0.31,0.3-0.54,0.6-0.51c0.31,0.03,0.54,0.3,0.51,0.6c-0.01,0.07-0.54,6.63-0.34,8.58
						c0.04,0.34,0.17,0.46,0.28,0.52c0.53,0.32,1.74-0.01,2.25-0.21c0.29-0.12,0.61,0.02,0.73,0.31c0.12,0.29-0.02,0.61-0.31,0.73
						C251.61,179.1,250.67,179.47,249.72,179.47z"/>
				</g>
				<path class="st11" d="M242.61,183.01c0.42,2.13,1.83,6.05,6.58,6.05c4.76,0,6.09-3.58,6.55-6.05H242.61z"/>
				<g>
					<path class="st8" d="M249.11,192.33c-1.37,0-2.58-0.74-2.63-0.77c-0.26-0.16-0.34-0.51-0.18-0.77
						c0.16-0.26,0.51-0.34,0.77-0.18l0,0c0.01,0.01,1,0.6,2.04,0.6c1.13,0,2.14-0.6,2.15-0.6c0.27-0.16,0.61-0.07,0.77,0.19
						c0.16,0.26,0.08,0.61-0.19,0.77C251.8,191.6,250.57,192.33,249.11,192.33z"/>
				</g>
			</g>
			<path class="st6" d="M273.19,159.36c-0.18,0.51-0.68,0.84-1.35,1.03c0.05,1.24-0.08,2.72-0.2,4.15c-0.69,8.1-2.74,9.52-3.2,7.52
				c-0.3-1.33-0.29-8.96-0.14-11.45c-1.6-0.11-2.97-0.37-2.97-0.37l-1.88-7.86l-0.66,7.77c-2.82,0.98-9.39-0.59-9.39-0.59
				l-2.21-7.75l-1.36,7.46c-4.23,2.06-9.51,0.69-9.51,0.69l-1.21-8.05l-2.8,8.05c0,0-9.02,3.24-9.12,0
				c-0.06-1.88,1.32-7.18,2.48-11.29c1.27-4.48,4.21-8.26,8.19-10.4c11.19-6,23.02-2.81,27.07-0.39
				C273.55,143.01,273.19,159.36,273.19,159.36z"/>
			<path class="st6" d="M232.16,143.03c0,0-7.42,8.83-9.87,24.6c-2.44,15.77-5.82,27.42,3.68,32.63c10.29,5.64,9.4-5.92,9.25-9.07
				c-0.15-3.14-8.9-11.73-3.06-35.91C234.04,147.47,232.16,143.03,232.16,143.03z"/>
			<path class="st7" d="M230.42,175.62c0,0,0,0.01,0,0.02c0,0.12,0.01,0.74,0.06,1.72c0.02,0.61,0.06,1.35,0.12,2.19
				c0.35,5.31,1.38,14.49,4.42,17.67c1.2,1.26,3.51,1.89,6.23,2.15v-4.17c-2.87-1.36-5.1-3.6-6.84-6.35
				c-1.07-2.32-2.92-5.95-3.78-11.66L230.42,175.62z"/>
			<path class="st11" d="M271.07,180.78c0,0.73-0.59,1.31-1.31,1.31s-1.31-0.59-1.31-1.31c0-0.73,0.59-1.31,1.31-1.31
				S271.07,180.06,271.07,180.78z"/>
		</g>
		<g>
			<path class="st4" d="M297.83,279.7c-3.72,10.65-20.38,9.87-39.35,4.05c-0.03-0.01-0.05-0.02-0.08-0.03
				c-0.06-0.02-0.12-0.04-0.18-0.05l-2.61-0.83c-0.36-0.12-0.72-0.24-1.08-0.36c-2.04-0.68-4.1-1.42-6.17-2.21
				c-6.78-2.57-13.61-5.63-20.05-8.88l0.04-0.11l1.94-5.04l0.66-1.71c0,0,35.17,3.83,52.86,0.13c0.3-0.06,0.59-0.13,0.88-0.19
				c-0.07-0.39-0.09-0.79-0.2-1.17c-9.37-31.9,0.88-38.02,4.31-42.47C288.79,220.83,304.85,259.6,297.83,279.7z"/>
			<g>
				<path class="st5" d="M292.1,269.83c-0.11,0.05-0.22,0.07-0.33,0.07c-0.28,0-0.54-0.15-0.67-0.42c-1.34-2.74-5.89-4.38-7.29-4.82
					c0.3-0.06,0.59-0.13,0.88-0.19c-0.07-0.39-0.14-0.78-0.2-1.17c1.78,0.59,6.42,2.38,7.96,5.53
					C292.63,269.2,292.47,269.65,292.1,269.83z"/>
			</g>
			<g>
				<path class="st5" d="M242.84,268.49c-7.18,0-13.01-0.41-13.51-0.45c-0.41-0.03-0.72-0.39-0.69-0.8c0.03-0.41,0.39-0.72,0.8-0.69
					c0.27,0.02,26.65,1.89,37.05-2.33c0.38-0.16,0.82,0.03,0.98,0.41c0.16,0.38-0.03,0.82-0.41,0.98
					C261.29,267.94,251.16,268.49,242.84,268.49z"/>
			</g>
			<g>
				<path class="st5" d="M255.61,282.84C255.61,282.84,255.61,282.84,255.61,282.84c6.02-1.66,11.49-3.28,14.65-4.29
					c4.39-1.41,8.02-5.84,9.67-9.61c0.17-0.38,0.61-0.55,0.99-0.39c0.38,0.17,0.55,0.61,0.39,0.99c-1.78,4.08-5.75,8.89-10.58,10.44
					c-2.29,0.74-5.79,1.79-9.84,2.94C259.15,283.41,257.32,283.39,255.61,282.84L255.61,282.84z"/>
			</g>
			<g>
				<path class="st4" d="M271.84,277.68c-54.36,18.31-71.08,6.33-71.08,6.33c-3.66-33.09,9.83-62.85,9.83-62.85
					c3.98,6.57,8.49,18.03,8.49,18.03l1.19,25.37l-0.09,0.7l-0.04,0.33l-0.22,1.73l-0.01,0.03c0.12,0.03,0.23,0.05,0.35,0.08
					c16.44,3.47,46.51-0.41,46.51-0.41L271.84,277.68z"/>
				<g>
					<path class="st5" d="M220.25,267.44c-2.93,2.46-5.72,5.29-8.21,8.55c-0.25,0.33-0.72,0.39-1.05,0.14
						c-0.33-0.25-0.39-0.72-0.15-1.05c0,0,0,0,0,0c2.79-3.67,5.96-6.81,9.28-9.49l-0.22,1.73l-0.01,0.03
						C220.02,267.39,220.13,267.42,220.25,267.44z"/>
				</g>
				<path class="st10" d="M266.76,267.04c0,0,6.02-13.67,15.17-12.45l2.76,9.88c-5.01,2.13-5.74,10.71-12.85,13.22L266.76,267.04z"
					/>
			</g>
			<path class="st10" d="M230.96,264.52c0,0-3.8-8.92-13.8-11.51c-10-2.59-16.37,2.12-17.05,3.9c-0.67,1.78,3.77,0.08,3.77,0.08
				s-2.89,0.82-4.55,3.54c-1.66,2.72,4.04-0.21,4.04-0.21s-4.09,1.79-4.61,3.45c-0.52,1.66,4.87-1.15,5.89-1.09
				c0,0-4.81,1.91-4.78,3.63c0.03,1.71,5.53-1.08,9.64-0.86c4.11,0.22,10.4,1.92,10.4,1.92c3.36,0.64,6.57,1.11,9.48,1.25
				L230.96,264.52z"/>
		</g>
	</g>
	<g>
		<g>
			<g>
				<g>
					<g>
						<path class="st5" d="M327.54,125.83c-3.7,0-6.71-3.01-6.71-6.71s3.01-6.71,6.71-6.71c3.7,0,6.71,3.01,6.71,6.71
							S331.24,125.83,327.54,125.83z M327.54,114.51c-2.54,0-4.61,2.07-4.61,4.61c0,2.54,2.07,4.61,4.61,4.61
							c2.54,0,4.61-2.07,4.61-4.61C332.14,116.58,330.08,114.51,327.54,114.51z"/>
					</g>
					<g>
						<path class="st4" d="M386.11,114.42c-3.7,0-6.71-3.01-6.71-6.71c0-3.7,3.01-6.71,6.71-6.71c3.7,0,6.71,3.01,6.71,6.71
							C392.82,111.41,389.81,114.42,386.11,114.42z M386.11,103.1c-2.54,0-4.61,2.07-4.61,4.61c0,2.54,2.07,4.61,4.61,4.61
							c2.54,0,4.61-2.07,4.61-4.61C390.72,105.17,388.65,103.1,386.11,103.1z"/>
					</g>
					<g>
						<g>
							<g>
								<path class="st5" d="M394.41,136.24c-0.58,0-1.05-0.47-1.05-1.05v-4.64c0-0.58,0.47-1.05,1.05-1.05
									c0.58,0,1.05,0.47,1.05,1.05v4.64C395.46,135.77,394.99,136.24,394.41,136.24z"/>
							</g>
							<g>
								<path class="st5" d="M394.41,144.37c-0.58,0-1.05-0.47-1.05-1.05v-4.64c0-0.58,0.47-1.05,1.05-1.05
									c0.58,0,1.05,0.47,1.05,1.05v4.64C395.46,143.9,394.99,144.37,394.41,144.37z"/>
							</g>
						</g>
						<g>
							<g>
								<path class="st5" d="M400.92,137.98h-4.17c-0.58,0-1.05-0.47-1.05-1.05c0-0.58,0.47-1.05,1.05-1.05h4.17
									c0.58,0,1.05,0.47,1.05,1.05C401.98,137.51,401.51,137.98,400.92,137.98z"/>
							</g>
							<g>
								<path class="st5" d="M392.06,137.98h-4.17c-0.58,0-1.05-0.47-1.05-1.05c0-0.58,0.47-1.05,1.05-1.05h4.17
									c0.58,0,1.05,0.47,1.05,1.05C393.11,137.51,392.64,137.98,392.06,137.98z"/>
							</g>
						</g>
					</g>
					<g>
						<g>
							<g>
								<g>
									<path class="st3" d="M358.94,108.11c-0.58,0-1.05-0.47-1.05-1.05v-4.64c0-0.58,0.47-1.05,1.05-1.05s1.05,0.47,1.05,1.05
										v4.64C360,107.64,359.52,108.11,358.94,108.11z"/>
								</g>
								<g>
									<path class="st3" d="M358.94,116.23c-0.58,0-1.05-0.47-1.05-1.05v-4.64c0-0.58,0.47-1.05,1.05-1.05s1.05,0.47,1.05,1.05
										v4.64C360,115.76,359.52,116.23,358.94,116.23z"/>
								</g>
							</g>
							<g>
								<g>
									<path class="st3" d="M365.46,109.85h-4.17c-0.58,0-1.05-0.47-1.05-1.05c0-0.58,0.47-1.05,1.05-1.05h4.17
										c0.58,0,1.05,0.47,1.05,1.05C366.52,109.38,366.04,109.85,365.46,109.85z"/>
								</g>
								<g>
									<path class="st3" d="M356.6,109.85h-4.17c-0.58,0-1.05-0.47-1.05-1.05c0-0.58,0.47-1.05,1.05-1.05h4.17
										c0.58,0,1.05,0.47,1.05,1.05C357.65,109.38,357.18,109.85,356.6,109.85z"/>
								</g>
							</g>
						</g>
					</g>
				</g>
			</g>
			<g>
				<g>
					<g>
						<path class="st5" d="M87.57,102.08c0-3.7,3.01-6.71,6.71-6.71c3.7,0,6.71,3.01,6.71,6.71c0,3.7-3.01,6.71-6.71,6.71
							C90.58,108.8,87.57,105.78,87.57,102.08z M89.67,102.08c0,2.54,2.07,4.61,4.61,4.61c2.54,0,4.61-2.07,4.61-4.61
							c0-2.54-2.07-4.61-4.61-4.61C91.74,97.47,89.67,99.54,89.67,102.08z"/>
					</g>
					<g>
						<path class="st4" d="M60.61,127.67c0-3.7,3.01-6.71,6.71-6.71c3.7,0,6.71,3.01,6.71,6.71c0,3.7-3.01,6.71-6.71,6.71
							C63.62,134.39,60.61,131.37,60.61,127.67z M62.71,127.67c0,2.54,2.07,4.61,4.61,4.61c2.54,0,4.61-2.07,4.61-4.61
							c0-2.54-2.07-4.61-4.61-4.61C64.78,123.06,62.71,125.13,62.71,127.67z"/>
					</g>
					<g>
						<g>
							<g>
								<path class="st5" d="M46.65,137.09c0.58,0,1.05-0.47,1.05-1.05v-4.64c0-0.58-0.47-1.05-1.05-1.05s-1.05,0.47-1.05,1.05v4.64
									C45.6,136.62,46.07,137.09,46.65,137.09z"/>
							</g>
							<g>
								<path class="st5" d="M46.65,145.22c0.58,0,1.05-0.47,1.05-1.05v-4.64c0-0.58-0.47-1.05-1.05-1.05s-1.05,0.47-1.05,1.05v4.64
									C45.6,144.75,46.07,145.22,46.65,145.22z"/>
							</g>
						</g>
						<g>
							<g>
								<path class="st5" d="M40.13,138.84h4.17c0.58,0,1.05-0.47,1.05-1.05c0-0.58-0.47-1.05-1.05-1.05h-4.17
									c-0.58,0-1.05,0.47-1.05,1.05C39.08,138.36,39.55,138.84,40.13,138.84z"/>
							</g>
							<g>
								<path class="st5" d="M49,138.84h4.17c0.58,0,1.05-0.47,1.05-1.05c0-0.58-0.47-1.05-1.05-1.05H49
									c-0.58,0-1.05,0.47-1.05,1.05C47.94,138.36,48.41,138.84,49,138.84z"/>
							</g>
						</g>
					</g>
					<g>
						<g>
							<g>
								<g>
									<path class="st3" d="M70.91,101.39c0.58,0,1.05-0.47,1.05-1.05V95.7c0-0.58-0.47-1.05-1.05-1.05s-1.05,0.47-1.05,1.05v4.64
										C69.86,100.92,70.33,101.39,70.91,101.39z"/>
								</g>
								<g>
									<path class="st3" d="M70.91,109.52c0.58,0,1.05-0.47,1.05-1.05v-4.64c0-0.58-0.47-1.05-1.05-1.05s-1.05,0.47-1.05,1.05
										v4.64C69.86,109.05,70.33,109.52,70.91,109.52z"/>
								</g>
							</g>
							<g>
								<g>
									<path class="st3" d="M64.4,103.13h4.17c0.58,0,1.05-0.47,1.05-1.05c0-0.58-0.47-1.05-1.05-1.05H64.4
										c-0.58,0-1.05,0.47-1.05,1.05C63.34,102.66,63.81,103.13,64.4,103.13z"/>
								</g>
								<g>
									<path class="st3" d="M73.26,103.13h4.17c0.58,0,1.05-0.47,1.05-1.05c0-0.58-0.47-1.05-1.05-1.05h-4.17
										c-0.58,0-1.05,0.47-1.05,1.05C72.21,102.66,72.68,103.13,73.26,103.13z"/>
								</g>
							</g>
						</g>
					</g>
				</g>
			</g>
		</g>
		<g>
			<g>
				<g>
					<path class="st2" d="M271.69,102.56c-0.12,0.01-0.25,0-0.37-0.05c-1.28-0.54-2.03-0.79-2.03-0.79
						c-0.39-0.13-0.6-0.55-0.47-0.95c0.13-0.39,0.55-0.6,0.95-0.47c0.03,0.01,0.8,0.27,2.14,0.83c0.38,0.16,0.56,0.6,0.4,0.98
						C272.19,102.37,271.95,102.54,271.69,102.56z"/>
				</g>
				<g>
					<path class="st2" d="M309.8,142.67c0.51,1.36,0.98,2.76,1.42,4.16c0.11,0.35,0.44,0.56,0.79,0.52
						c0.05-0.01,0.09-0.01,0.14-0.03c0.39-0.12,0.62-0.54,0.49-0.93c-0.44-1.43-0.93-2.86-1.45-4.24c-0.14-0.39-0.57-0.58-0.96-0.44
						C309.85,141.85,309.65,142.29,309.8,142.67z"/>
					<path class="st2" d="M312.38,151.07c0.34,1.4,0.65,2.85,0.92,4.3c0.07,0.39,0.43,0.65,0.81,0.61c0.02,0,0.04,0,0.06-0.01
						c0.41-0.08,0.67-0.47,0.6-0.87c-0.27-1.47-0.59-2.95-0.94-4.38c-0.1-0.4-0.5-0.65-0.9-0.55
						C312.53,150.26,312.28,150.67,312.38,151.07z"/>
					<path class="st2" d="M315.53,173.65c0.37-0.04,0.66-0.35,0.67-0.73c0.02-1.5,0.01-3.01-0.03-4.47
						c-0.01-0.41-0.36-0.74-0.77-0.72c-0.42,0.01-0.74,0.36-0.72,0.77c0.04,1.45,0.05,2.93,0.03,4.41
						c-0.01,0.41,0.32,0.75,0.74,0.76C315.47,173.65,315.5,173.65,315.53,173.65z"/>
					<path class="st2" d="M314.63,158.87c-0.41,0.05-0.7,0.43-0.64,0.84c0.09,0.68,0.17,1.36,0.24,2.03
						c0.08,0.77,0.15,1.56,0.22,2.35c0.03,0.41,0.39,0.72,0.8,0.69c0.01,0,0.01,0,0.02,0c0.4-0.04,0.7-0.4,0.67-0.8
						c-0.06-0.8-0.14-1.6-0.22-2.39c-0.07-0.68-0.15-1.38-0.24-2.07c-0.05-0.4-0.42-0.69-0.82-0.65
						C314.64,158.87,314.63,158.87,314.63,158.87z"/>
					<path class="st2" d="M308.13,138.61c0.14,0.3,0.45,0.47,0.76,0.44c0.08-0.01,0.15-0.03,0.23-0.06
						c0.38-0.17,0.55-0.61,0.38-0.99c-0.61-1.36-1.27-2.72-1.96-4.03c-0.19-0.37-0.64-0.51-1.01-0.31
						c-0.37,0.19-0.51,0.64-0.31,1.01C306.89,135.95,307.53,137.28,308.13,138.61z"/>
					<path class="st2" d="M275.29,104.37c1.28,0.66,2.58,1.37,3.85,2.12c0.14,0.09,0.3,0.12,0.46,0.1c0.23-0.02,0.44-0.15,0.57-0.36
						c0.21-0.36,0.09-0.81-0.26-1.02c-1.3-0.77-2.62-1.5-3.93-2.17c-0.37-0.19-0.82-0.04-1.01,0.33
						C274.78,103.73,274.93,104.18,275.29,104.37z"/>
					<path class="st2" d="M286.44,111.41c0.16,0.12,0.35,0.17,0.53,0.15c0.2-0.02,0.39-0.12,0.52-0.29c0.25-0.33,0.19-0.8-0.14-1.05
						c-1.18-0.9-2.41-1.78-3.64-2.62c-0.34-0.23-0.81-0.14-1.04,0.2c-0.23,0.34-0.14,0.81,0.2,1.04
						C284.07,109.66,285.28,110.52,286.44,111.41z"/>
					<path class="st2" d="M299,123.65c0.17,0.21,0.42,0.3,0.66,0.28c0.14-0.01,0.27-0.07,0.39-0.16c0.32-0.26,0.37-0.73,0.12-1.05
						c-0.93-1.16-1.91-2.31-2.91-3.41c-0.28-0.31-0.75-0.33-1.06-0.05c-0.31,0.28-0.33,0.75-0.05,1.06
						C297.13,121.39,298.09,122.52,299,123.65z"/>
					<path class="st2" d="M293.09,117.15c0.17,0.16,0.39,0.23,0.6,0.21c0.17-0.02,0.33-0.09,0.46-0.22c0.29-0.3,0.28-0.77-0.01-1.06
						c-1.06-1.03-2.18-2.05-3.31-3.03c-0.31-0.27-0.79-0.23-1.05,0.08c-0.27,0.31-0.23,0.78,0.08,1.05
						C290.96,115.14,292.05,116.14,293.09,117.15z"/>
					<path class="st2" d="M304.05,130.84c0.16,0.25,0.44,0.38,0.72,0.35c0.11-0.01,0.21-0.05,0.31-0.11
						c0.35-0.22,0.46-0.68,0.25-1.03c-0.78-1.27-1.6-2.53-2.46-3.75c-0.24-0.34-0.7-0.42-1.04-0.18c-0.34,0.24-0.42,0.7-0.18,1.04
						C302.48,128.36,303.29,129.6,304.05,130.84z"/>
				</g>
			</g>
			<g>
				<g>
					<polygon class="st4" points="271.68,97.45 274.95,85.33 234.85,85.67 					"/>
					<polygon class="st5" points="234.85,85.67 269.73,100.37 269.82,100.41 271.32,102.9 271.68,97.45 					"/>
					<polygon class="st5" points="271.32,102.9 268.07,102.39 269.82,100.41 					"/>
					<polygon class="st4" points="265.43,98.56 269.82,100.41 260.78,110.6 234.85,85.67 					"/>
				</g>
			</g>
		</g>
	</g>
	<g>
		<path class="st3" d="M456.06,416.31v0.73c0,4.21-3.42,7.63-7.63,7.63H52.47c-4.22,0-7.63-3.42-7.63-7.63v-0.73
			c0-4.21,3.42-7.63,7.63-7.63h395.95C452.64,408.68,456.06,412.1,456.06,416.31z"/>
		<path class="st5" d="M456.06,416.31v0.37H44.84v-0.37c0-4.21,3.42-7.63,7.63-7.63h395.95
			C452.64,408.68,456.06,412.1,456.06,416.31z"/>
	</g>
	<g>
		<path class="st6" d="M311.04,384.67H186.66c-2.97,0-5.38-2.41-5.38-5.38v-65.08c0-2.97,2.41-5.38,5.38-5.38h124.39
			c2.97,0,5.38,2.41,5.38,5.38v65.08C316.42,382.26,314.02,384.67,311.04,384.67z"/>
		<rect x="238.39" y="384.58" class="st7" width="20.93" height="23.86"/>
		<circle class="st14" cx="248.62" cy="347.68" r="10.39"/>
		<path class="st6" d="M275.51,408.45h-53.99v-1.82c0-3.67,2.98-6.65,6.65-6.65h40.7c3.67,0,6.65,2.98,6.65,6.65V408.45z"/>
	</g>
</g>
<g id="DESIGNED_BY_FREEPIK" class="st0">
	<g class="st15">
		<g id="XMLID_1_">
			<g id="XMLID_20_">
				<path id="XMLID_28_" class="st16" d="M260.1,465.47c-0.43,0.44-0.8,0.93-1.11,1.45l-0.47-0.24c-0.07-0.3-0.35-0.5-0.66-0.47
					c-0.33,0.04-0.57,0.34-0.53,0.67c0.04,0.33,0.34,0.57,0.67,0.53c0.07-0.01,0.13-0.03,0.18-0.05l0.45,0.23
					c-0.25,0.55-0.43,1.14-0.54,1.74l0.75,0.13c0.23-1.31,0.85-2.51,1.79-3.47L260.1,465.47z"/>
				<path id="XMLID_27_" class="st16" d="M265.59,463.16c-0.17,0-0.34,0.01-0.51,0.02l-0.07-0.63c0.19-0.15,0.3-0.39,0.27-0.64
					c-0.05-0.39-0.4-0.67-0.8-0.63c-0.39,0.05-0.67,0.4-0.63,0.8c0.03,0.25,0.19,0.46,0.4,0.56l0.07,0.62
					c-0.71,0.12-1.4,0.33-2.06,0.65l0.33,0.68c0.93-0.45,1.94-0.67,3-0.67c0.5,0,0.99,0.05,1.48,0.16l0.16-0.74
					C266.69,463.22,266.14,463.16,265.59,463.16z"/>
				<path id="XMLID_26_" class="st16" d="M272.19,465.71c0.33-0.04,0.57-0.34,0.53-0.67c-0.04-0.33-0.34-0.57-0.67-0.53
					c-0.31,0.04-0.54,0.3-0.53,0.61l-0.42,0.36c-0.42-0.43-0.89-0.81-1.41-1.14l-0.4,0.64c1.13,0.71,2.02,1.73,2.56,2.93l0.69-0.31
					c-0.25-0.55-0.57-1.07-0.94-1.55l0.4-0.35C272.06,465.72,272.13,465.72,272.19,465.71z"/>
				<path id="XMLID_25_" class="st16" d="M265.04,473.37c-0.39,0.02-0.77,0.03-1.16,0.03c-0.88,0-1.73-0.06-2.48-0.18
					c-0.39-0.06-0.85-0.15-1.27-0.29c1.05,1.86,3.07,3.13,5.39,3.13c2.86,0,5.26-1.92,5.95-4.5c-0.68,0.45-1.51,0.83-2.46,1.12
					C267.84,473.05,266.46,473.29,265.04,473.37z"/>
				<path id="XMLID_21_" class="st16" d="M265.59,464.68c-3.35,0-6.08,2.67-6.08,5.94c0,0.43,0.05,0.85,0.14,1.26
					c0.67,0.48,2.71,0.89,5.35,0.73c2.88-0.17,5.3-0.96,6.67-2.16c-0.01-0.19-0.02-0.39-0.05-0.58
					C271.24,466.91,268.65,464.68,265.59,464.68z M263.43,471.19c-1.02,0-1.85-0.83-1.85-1.85c0-1.02,0.83-1.85,1.85-1.85
					c1.02,0,1.85,0.83,1.85,1.85C265.28,470.36,264.45,471.19,263.43,471.19z M268.17,470.29c-0.75,0-1.36-0.61-1.36-1.36
					s0.61-1.36,1.36-1.36c0.75,0,1.36,0.61,1.36,1.36S268.92,470.29,268.17,470.29z"/>
			</g>
			<path id="XMLID_18_" class="st16" d="M281.6,466.55c-0.29-0.12-0.81-0.31-1.38-0.24c-0.55,0.07-0.84,0.34-0.84,1.01v0.87h2.23
				v1.72h-2.23v5.45h-1.93v-5.45h-1.34v-1.72h1.34v-0.89c0-1.68,0.9-2.78,2.57-2.78c0.64,0,1.16,0.12,1.59,0.31L281.6,466.55z"/>
			<path id="XMLID_16_" class="st16" d="M286.3,469.88c-0.18-0.03-0.36-0.05-0.53-0.05c-0.9,0-1.51,0.55-1.51,1.61v3.91h-1.93v-7.17
				h1.87v0.78c0.45-0.67,1.14-0.98,2.02-0.98c0.41,0,0.85,0.13,1.09,0.34L286.3,469.88z"/>
			<path id="XMLID_13_" class="st16" d="M293.97,471.76c0,0.22-0.01,0.49-0.04,0.65h-5.08c0.21,1.04,0.93,1.49,1.84,1.49
				c0.62,0,1.3-0.25,1.81-0.69l1.13,1.24c-0.81,0.75-1.85,1.09-3.06,1.09c-2.2,0-3.72-1.5-3.72-3.75c0-2.26,1.48-3.8,3.63-3.8
				C292.54,467.99,293.96,469.52,293.97,471.76z M288.85,471.09h3.18c-0.18-0.92-0.73-1.44-1.56-1.44
				C289.55,469.65,289.02,470.2,288.85,471.09z"/>
			<path id="XMLID_10_" class="st16" d="M301.62,471.76c0,0.22-0.02,0.49-0.04,0.65h-5.08c0.21,1.04,0.93,1.49,1.84,1.49
				c0.62,0,1.3-0.25,1.81-0.69l1.13,1.24c-0.81,0.75-1.85,1.09-3.06,1.09c-2.2,0-3.72-1.5-3.72-3.75c0-2.26,1.48-3.8,3.63-3.8
				C300.2,467.99,301.61,469.52,301.62,471.76z M296.5,471.09h3.18c-0.18-0.92-0.73-1.44-1.56-1.44
				C297.21,469.65,296.67,470.2,296.5,471.09z"/>
			<path id="XMLID_7_" class="st16" d="M309.96,471.76c0,2.15-1.5,3.77-3.47,3.77c-0.96,0-1.64-0.38-2.11-0.93v3.71h-1.92v-10.13
				h1.89v0.79c0.47-0.58,1.15-0.98,2.14-0.98C308.47,467.99,309.96,469.61,309.96,471.76z M304.29,471.76
				c0,1.13,0.75,1.98,1.84,1.98c1.14,0,1.85-0.88,1.85-1.98c0-1.1-0.71-1.98-1.85-1.98C305.03,469.79,304.29,470.63,304.29,471.76z"
				/>
			<path id="XMLID_4_" class="st16" d="M313.07,465.84c0,0.7-0.54,1.23-1.24,1.23c-0.7,0-1.23-0.53-1.23-1.23
				c0-0.7,0.53-1.24,1.23-1.24C312.53,464.59,313.07,465.14,313.07,465.84z M312.81,475.35h-1.93v-7.17h1.93V475.35z"/>
			<path id="XMLID_2_" class="st16" d="M316.03,470.74l2.7-2.55h2.37l-3.48,3.38l3.5,3.8h-2.38l-2.72-2.9v2.9h-1.93V464.7h1.93
				V470.74z"/>
		</g>
		<g>
			<path class="st16" d="M184.41,475.29v-1.05c-0.53,0.72-1.39,1.23-2.39,1.23c-1.85,0-3.15-1.41-3.15-3.71
				c0-2.26,1.29-3.72,3.15-3.72c0.95,0,1.82,0.47,2.39,1.25v-3.76h1.1v9.77H184.41z M184.41,473.37v-3.21
				c-0.4-0.62-1.24-1.14-2.12-1.14c-1.42,0-2.27,1.17-2.27,2.74c0,1.57,0.85,2.72,2.27,2.72
				C183.17,474.48,184.02,473.99,184.41,473.37z"/>
			<path class="st16" d="M186.93,471.74c0-2.05,1.46-3.71,3.49-3.71c2.14,0,3.4,1.67,3.4,3.79v0.28h-5.73
				c0.09,1.33,1.03,2.45,2.55,2.45c0.81,0,1.63-0.32,2.18-0.89l0.53,0.72c-0.7,0.7-1.65,1.08-2.81,1.08
				C188.44,475.46,186.93,473.96,186.93,471.74z M190.4,468.95c-1.51,0-2.26,1.27-2.31,2.36h4.64
				C192.72,470.25,192.01,468.95,190.4,468.95z"/>
			<path class="st16" d="M194.61,474.35l0.57-0.79c0.47,0.54,1.36,1.01,2.33,1.01c1.08,0,1.67-0.51,1.67-1.22
				c0-1.71-4.38-0.66-4.38-3.28c0-1.1,0.95-2.04,2.64-2.04c1.2,0,2.05,0.45,2.62,1.03l-0.51,0.76c-0.42-0.51-1.2-0.89-2.11-0.89
				c-0.97,0-1.57,0.48-1.57,1.11c0,1.55,4.38,0.53,4.38,3.28c0,1.19-0.95,2.14-2.78,2.14C196.31,475.46,195.32,475.11,194.61,474.35
				z"/>
			<path class="st16" d="M201.48,466.47c0-0.41,0.34-0.75,0.73-0.75c0.41,0,0.75,0.34,0.75,0.75c0,0.41-0.34,0.73-0.75,0.73
				C201.81,467.2,201.48,466.88,201.48,466.47z M201.67,475.29v-7.07h1.1v7.07H201.67z"/>
			<path class="st16" d="M204.58,477.11l0.56-0.82c0.59,0.7,1.29,0.97,2.3,0.97c1.17,0,2.27-0.57,2.27-2.12v-1.01
				c-0.51,0.72-1.38,1.26-2.37,1.26c-1.85,0-3.15-1.38-3.15-3.66c0-2.27,1.29-3.68,3.15-3.68c0.95,0,1.8,0.47,2.37,1.25v-1.07h1.1
				v6.87c0,2.34-1.64,3.08-3.37,3.08C206.24,478.16,205.42,477.93,204.58,477.11z M209.71,473.25v-3.09
				c-0.38-0.62-1.23-1.14-2.11-1.14c-1.42,0-2.27,1.13-2.27,2.7c0,1.55,0.85,2.7,2.27,2.7
				C208.48,474.41,209.33,473.87,209.71,473.25z"/>
			<path class="st16" d="M217.41,475.29v-4.63c0-1.24-0.63-1.64-1.58-1.64c-0.86,0-1.68,0.53-2.09,1.1v5.17h-1.1v-7.07h1.1v1.03
				c0.5-0.59,1.46-1.2,2.52-1.2c1.48,0,2.26,0.75,2.26,2.29v4.97H217.41z"/>
			<path class="st16" d="M219.93,471.74c0-2.05,1.46-3.71,3.49-3.71c2.14,0,3.4,1.67,3.4,3.79v0.28h-5.73
				c0.09,1.33,1.03,2.45,2.55,2.45c0.81,0,1.63-0.32,2.18-0.89l0.53,0.72c-0.7,0.7-1.66,1.08-2.81,1.08
				C221.44,475.46,219.93,473.96,219.93,471.74z M223.4,468.95c-1.51,0-2.26,1.27-2.31,2.36h4.64
				C225.72,470.25,225.02,468.95,223.4,468.95z"/>
			<path class="st16" d="M233.35,475.29v-1.05c-0.53,0.72-1.39,1.23-2.39,1.23c-1.85,0-3.15-1.41-3.15-3.71
				c0-2.26,1.29-3.72,3.15-3.72c0.95,0,1.82,0.47,2.39,1.25v-3.76h1.1v9.77H233.35z M233.35,473.37v-3.21
				c-0.4-0.62-1.25-1.14-2.12-1.14c-1.42,0-2.27,1.17-2.27,2.74c0,1.57,0.85,2.72,2.27,2.72
				C232.1,474.48,232.95,473.99,233.35,473.37z"/>
			<path class="st16" d="M239.69,475.29v-9.77h1.1v3.76c0.57-0.78,1.42-1.25,2.39-1.25c1.85,0,3.15,1.46,3.15,3.72
				c0,2.3-1.3,3.71-3.15,3.71c-1,0-1.86-0.51-2.39-1.23v1.05H239.69z M242.9,474.48c1.44,0,2.29-1.16,2.29-2.72
				c0-1.57-0.85-2.74-2.29-2.74c-0.86,0-1.73,0.53-2.11,1.14v3.21C241.17,473.99,242.04,474.48,242.9,474.48z"/>
			<path class="st16" d="M247.53,477.06c0.16,0.07,0.43,0.12,0.6,0.12c0.48,0,0.81-0.16,1.05-0.75l0.47-1.07l-2.96-7.15h1.19
				l2.36,5.8l2.34-5.8h1.2l-3.54,8.51c-0.42,1.03-1.14,1.42-2.08,1.44c-0.23,0-0.6-0.04-0.81-0.1L247.53,477.06z"/>
		</g>
	</g>
</g>
</svg>
